<svg id="Layer_1" data-name="Layer 1" xmlns="http://www.w3.org/2000/svg" viewBox="0 0 265 197"><defs><style>.cls-1,.cls-2,.cls-3{fill:#fff;}.cls-2,.cls-3{stroke:#fff;stroke-miterlimit:10;}.cls-2{stroke-width:4px;}.cls-3{stroke-width:6px;}</style></defs><rect class="cls-1" x="6.5" y="6.5" width="251" height="184" rx="9"/><path d="M266.41,60.54a6,6,0,0,1,6,6v166a6,6,0,0,1-6,6h-233a6,6,0,0,1-6-6v-166a6,6,0,0,1,6-6h233m0-6h-233a12,12,0,0,0-12,12v166a12,12,0,0,0,12,12h233a12,12,0,0,0,12-12v-166a12,12,0,0,0-12-12Z" transform="translate(-17.91 -51.04)"/><rect class="cls-2" x="2" y="46" width="3" height="107"/><rect class="cls-3" x="259" y="46" width="3" height="107"/><rect class="cls-3" x="149.41" y="157.54" width="2" height="173" transform="translate(-111.54 343.41) rotate(-90)"/><rect class="cls-3" x="149.41" y="-31.46" width="2" height="173" transform="translate(77.46 154.41) rotate(-90)"/></svg>