<svg id="Layer_1" data-name="Layer 1" xmlns="http://www.w3.org/2000/svg" viewBox="0 0 47.74 76.41"><defs><style>.cls-1,.cls-2,.cls-3{fill:#fff;}.cls-2,.cls-3{stroke:#fff;stroke-miterlimit:10;}.cls-3{stroke-width:0.4px;}</style></defs><path class="cls-1" d="M12.47,24.37c0-.39,0-.79,0-1.18.11-1.43-.24,1.12,0,.11a19.62,19.62,0,0,1,.61-2.37c.07-.2.16-.4.22-.61.17-.58-.32.72-.29.69a10.54,10.54,0,0,0,.5-1c.38-.71.92-1.34,1.3-2.05-.61,1.16-.67.82-.34.46.15-.16.28-.33.43-.49s.44-.48.67-.71l1-.88c.15-.13.64-.49-.09.06s.06,0,.18-.12a17.72,17.72,0,0,1,2-1.21c.22-.12,1.49-.67.5-.27s.49-.18.71-.25a19.21,19.21,0,0,1,2.34-.62l.52-.1c1-.19-.45.07-.54.07.47,0,1-.09,1.43-.11.85,0,1.69,0,2.53.07,1.08.08-1.35-.23,0,0,.46.09.92.18,1.37.3a22.46,22.46,0,0,1,2.28.74c.72.27-1.17-.55-.5-.2l.46.22c.4.2.79.41,1.17.64a13.3,13.3,0,0,1,1.12.72c.13.09.26.2.4.29.52.31-.58-.46-.56-.44a23.12,23.12,0,0,0,1.89,1.8l.33.36c.65.72-.06,0-.23-.33A11.21,11.21,0,0,0,34.58,19c.23.36.44.74.64,1.12.1.19.19.39.29.58.38.71-.18-.37-.22-.55.17.89.62,1.75.8,2.65l.09.48c.22,1-.1-1.19-.06-.44,0,.5.07,1,.08,1.51,0,3.14,2.73,6.15,6,6a6.1,6.1,0,0,0,6-6c-.11-9.94-6.82-18.15-16-21.35-8.8-3-19.6-.47-25.83,6.53A22.5,22.5,0,0,0,.47,24.37a6.07,6.07,0,0,0,6,6,6.11,6.11,0,0,0,6-6Z" transform="translate(-0.47 -1.76)"/><path class="cls-1" d="M36.2,24.33c0,.3,0,.6-.07.89-.08.69-.05.57.06-.34.13.14-.23,1.33-.28,1.53A21.15,21.15,0,0,1,35.14,29c-.34,1,.63-1.31.15-.35-.16.32-.31.64-.48.95-.29.53-.66,1-1,1.52,1.12-1.83.52-.65.05-.16-.22.22-.44.43-.68.64s-1.28.85.34-.23c-.26.17-.49.36-.74.53a26.37,26.37,0,0,1-2.58,1.6,5.61,5.61,0,0,1-1.53.76c.77-.32.84-.35.2-.09L27,35c-.35.15-1.48.85-.27.11a10.92,10.92,0,0,1-1.59.62,14.33,14.33,0,0,0-6.95,5A10.84,10.84,0,0,0,16.69,48a41.72,41.72,0,0,1,.06,6,6,6,0,0,0,6,6,6.14,6.14,0,0,0,6-6,41.72,41.72,0,0,0-.06-6c0-.37-.07-.75-.09-1.13,0-.63.31-1.87-.11,0,.17-.59.07-.41-.29.55.31-.5.21-.39-.31.36a6,6,0,0,1,.53-.48c-.73.55-.85.65-.37.3.31-.18.68-.34,1-.54s.19-.11-.65.26l.74-.29c.92-.35,1.81-.72,2.71-1.1.27-.12,2.15-1,.69-.3a37.44,37.44,0,0,0,6.34-3.31,20.45,20.45,0,0,0,5.83-5.78c2.34-3.6,3.23-7.95,3.52-12.17.22-3.14-2.92-6.14-6-6a6.14,6.14,0,0,0-6,6Z" transform="translate(-0.47 -1.76)"/><ellipse class="cls-1" cx="22.51" cy="69.65" rx="6.62" ry="6.17"/><path class="cls-1" d="M29,71.41a5.7,5.7,0,0,1-4,5.24,6.4,6.4,0,0,1-6.72-1.74,5.3,5.3,0,0,1-.52-6.31,6.24,6.24,0,0,1,6.35-2.66A5.79,5.79,0,0,1,29,71.41a.6.6,0,0,0,1.2,0A6.91,6.91,0,0,0,25.42,65a7.55,7.55,0,0,0-8.08,2.14,6.52,6.52,0,0,0-.5,7.79A7.5,7.5,0,0,0,24.45,78a7,7,0,0,0,5.76-6.62A.6.6,0,0,0,29,71.41Z" transform="translate(-0.47 -1.76)"/><path class="cls-2" d="M29.24,45.81s-.42.36-.87.86a3.8,3.8,0,0,0-.86,1.72V46.67C28.87,45.9,29.21,45.76,29.24,45.81Z" transform="translate(-0.47 -1.76)"/><path class="cls-2" d="M27.51,46.66" transform="translate(-0.47 -1.76)"/><rect class="cls-3" x="17.65" y="46.66" width="1.73" height="7.78" transform="translate(-1.09 -1.53) rotate(-0.7)"/><rect class="cls-3" x="23.03" y="47.34" width="7.78" height="1.73" transform="translate(-23.93 69.07) rotate(-85)"/></svg>