<svg id="Layer_1" data-name="Layer 1" xmlns="http://www.w3.org/2000/svg" viewBox="0 0 801 801"><defs><style>.cls-1,.cls-3{fill:red;}.cls-2,.cls-4,.cls-5{fill:#fff;}.cls-19,.cls-2,.cls-20{stroke:#000;}.cls-15,.cls-16,.cls-17,.cls-18,.cls-19,.cls-2,.cls-20,.cls-21,.cls-22,.cls-23,.cls-24,.cls-25,.cls-3,.cls-5{stroke-miterlimit:10;}.cls-3,.cls-5{stroke:#fff;}.cls-3{stroke-width:10px;}.cls-5{stroke-width:0.4px;}.cls-6{fill:#082e66;}.cls-7{fill:#f4989d;}.cls-8{fill:#7da7d9;}.cls-9{fill:#7da3df;}.cls-10{fill:#8493ca;}.cls-11{fill:#8781bd;}.cls-12{fill:#bd8dbf;}.cls-13{fill:#a286c0;}.cls-14{fill:#f9e6aa;}.cls-15,.cls-16,.cls-17,.cls-18,.cls-19,.cls-21,.cls-22,.cls-23,.cls-24,.cls-25{fill:none;}.cls-15{stroke:#8493ca;}.cls-16{stroke:#8781bd;}.cls-17{stroke:#a286c0;}.cls-18{stroke:#bd8dbf;}.cls-20,.cls-24{font-size:18.21px;font-family:Candara-Light, Candara;font-weight:300;}.cls-21{stroke:#7da7d9;}.cls-22{stroke:#f4989d;}.cls-23{stroke:#f9e6aa;}.cls-24,.cls-25{stroke:#717fd1;}</style></defs><circle class="cls-1" cx="91.4" cy="135.4" r="61.15"/><circle class="cls-2" cx="91.18" cy="134.75" r="51.43"/><ellipse class="cls-3" cx="91.4" cy="135.4" rx="52.07" ry="52.51"/><circle cx="236.6" cy="135.4" r="60.93"/><path class="cls-4" d="M266.64,126.26a3.34,3.34,0,0,1-2.12-4.46,30.55,30.55,0,0,0-13.45-11.92,3.16,3.16,0,0,1-1.74.49,3,3,0,0,1-3-2.28A34.92,34.92,0,0,0,227,108a3.2,3.2,0,0,1-5.23,1.94,30.47,30.47,0,0,0-13.44,12.16,3.34,3.34,0,0,1-2.15,4.66,25.75,25.75,0,0,0,.08,17,3.34,3.34,0,0,1,2.1,4.56,30.49,30.49,0,0,0,13.51,12.11,3.54,3.54,0,0,1,1.66-.39,3.32,3.32,0,0,1,3.27,2.24,34.73,34.73,0,0,0,9.71,1.37,35.24,35.24,0,0,0,9.67-1.35,3.68,3.68,0,0,1,3.63-2.46,4.14,4.14,0,0,1,1.79.39A30.25,30.25,0,0,0,264.82,148a3.73,3.73,0,0,1,2.1-4.71,25.65,25.65,0,0,0-.28-17Zm-29.16,25.79h-.54c-7.22,0-11.95-3.88-14.18-9a18.36,18.36,0,0,1,0-14.71c2.25-5.09,7-9,14.18-9h.54C258.41,119.4,258.38,152.05,237.48,152.05Z" transform="translate(0.5 0.5)"/><path class="cls-4" d="M276.72,130.05l-.3-.6-.32-.68-.6-.41-.86-.68-1.28-.49-1.23-.23-5.54-.62v17l.36,0a3.57,3.57,0,0,1,1.21-.21,3,3,0,0,1,.31,0l2.44-.41,1.43-.18.93-.19.89-.2.6-.28.8-.49.51-.59.53-.72.27-.6.12-.6v-8.12Z" transform="translate(0.5 0.5)"/><polyline class="cls-4" points="227.6 108.56 228.29 103.59 228.54 102.49 229.09 101.34 229.85 100.57 230.31 100.03 231.06 99.74 231.74 99.47 232.49 99.23 233.29 99.23 236.96 99.23 240.34 99.23 241.22 99.23 241.54 99.23 242.21 99.34 242.88 99.58 243.68 100.06 244.33 100.52 244.88 101.24 245.19 101.77 245.42 102.57 245.62 103.4 245.82 104.69 246.3 106.96 246.52 108.56"/><polyline class="cls-4" points="246.53 162.66 245.83 167.64 245.58 168.74 245.04 169.88 244.28 170.66 243.82 171.19 243.06 171.49 242.39 171.75 241.63 172 240.83 172 237.16 172 233.79 172 232.91 172 232.59 172 231.92 171.89 231.25 171.65 230.45 171.17 229.79 170.71 229.25 169.99 228.93 169.46 228.71 168.66 228.5 167.83 228.3 166.54 227.83 164.27 227.6 162.66"/><path class="cls-4" d="M205.44,126.85h0l-.19,0-2.53.42-1.43.18-.93.19-.89.2-.6.28-.8.49-.51.59-.53.72-.27.6-.12.6v8.12l.27.68.3.6.32.68.6.41.86.68,1.28.49,1.23.23,5.54.62v-17l-.75.08A3.54,3.54,0,0,1,205.44,126.85Z" transform="translate(0.5 0.5)"/><ellipse class="cls-4" cx="272.65" cy="131.9" rx="4.84" ry="4.34"/><path class="cls-4" d="M268.65,114.28l-.19-.85-.29-.59-.38-.5-.23-.2-.62-.56-2.39-2.14L262,107.11l-.57-.51-.73-.31-.68-.24-.77-.27-.74.09-1.15.06-1.29.47-1,.61-3.22,2.25a2.81,2.81,0,0,1-1.16.86l13.35,12,1.1-1.28,1.46-1.9.87-1,.51-.71.47-.71.2-.58.18-.86Z" transform="translate(0.5 0.5)"/><path class="cls-4" d="M221.78,110l-1.23-.86-2.13-1.3-1.15-.78-.8-.46-.79-.43L215,106l-.95-.17-.82.1-.95.17-.66.25-.56.35-.22.2-.63.56-2.38,2.14-2.6,2.33-.56.51-.35.65-.26.62-.3.68.09.67.07,1,.52,1.16.69.94,3.43,4,13.36-12A1.22,1.22,0,0,1,221.78,110Z" transform="translate(0.5 0.5)"/><path class="cls-4" d="M221.81,160.45l.51-.35-13.39-12-1.1,1.27-1.46,1.91-.87,1L205,153l-.47.71-.19.58-.19.86.1.73.19.85.29.6.39.5.22.2.62.56,2.39,2.14,2.6,2.33.56.51.73.31.68.23.77.28.74-.09,1.15-.06,1.29-.47,1-.62,3.29-2.29A2.68,2.68,0,0,1,221.81,160.45Z" transform="translate(0.5 0.5)"/><path class="cls-4" d="M269.17,153.84l-.52-1.15-.69-.94L266.47,150a3.32,3.32,0,0,1-1.58-1.82l-.36-.42-13.38,12,1.42,1,2.13,1.3,1.15.78.8.46.79.42.65.18,1,.17.82-.1.95-.17.66-.25.56-.35.22-.2.63-.56,2.38-2.14,2.6-2.33.56-.51.35-.65.26-.62.31-.68-.1-.67Z" transform="translate(0.5 0.5)"/><circle cx="549.48" cy="135.4" r="60.93"/><polygon class="cls-4" points="583.62 135.62 531.33 169.54 531.33 101.69 583.62 135.62"/><path class="cls-4" d="M582.36,133.82l-17.68,11.47-28.17,18.28-6.44,4.17,2.26,1.3V101.19l-2.26,1.3L547.75,114l28.17,18.27,6.44,4.18c1.62,1.05,3.13-1.54,1.51-2.59l-17.68-11.47L538,104.07l-6.44-4.17a1.5,1.5,0,0,0-2.25,1.29V169a1.5,1.5,0,0,0,2.25,1.29l17.69-11.47,28.17-18.27,6.43-4.18C585.49,135.36,584,132.77,582.36,133.82Z" transform="translate(0.5 0.5)"/><circle cx="393.04" cy="135.4" r="60.93"/><path class="cls-4" d="M380.53,120.82c0-.4,0-.79.05-1.18.11-1.44-.25,1.12,0,.11a21.64,21.64,0,0,1,.6-2.37c.07-.21.17-.4.23-.61.17-.59-.32.72-.3.69a7.41,7.41,0,0,0,.5-1c.38-.71.93-1.33,1.3-2-.61,1.16-.66.82-.33.45.14-.16.28-.33.43-.49s.44-.47.67-.7.65-.59,1-.88c.14-.14.64-.5-.1,0s.06,0,.19-.12a17.51,17.51,0,0,1,2-1.2c.22-.12,1.5-.67.5-.28s.5-.17.72-.24a17.15,17.15,0,0,1,2.34-.62l.52-.1c1-.19-.45.07-.55.07.47,0,1-.09,1.44-.11a23.82,23.82,0,0,1,2.53.07c1.08.08-1.35-.24,0,0,.46.08.92.18,1.37.3a22.46,22.46,0,0,1,2.28.74c.71.26-1.18-.55-.5-.2l.45.21c.4.2.8.42,1.18.64s.75.47,1.12.72a3.69,3.69,0,0,0,.4.29c.51.32-.58-.45-.56-.43a23,23,0,0,0,1.89,1.79l.32.37c.66.71-.05,0-.23-.33.19.37.51.71.74,1.07s.44.73.64,1.11l.29.58c.37.72-.18-.36-.22-.54.17.89.61,1.75.8,2.65l.09.48c.22,1-.1-1.2-.06-.45,0,.51.07,1,.07,1.52,0,3.13,2.74,6.14,6,6a6.1,6.1,0,0,0,6-6c-.1-9.94-6.81-18.15-16-21.35-8.81-3.06-19.6-.47-25.84,6.53a22.52,22.52,0,0,0-5.85,14.82,6,6,0,0,0,12,0Z" transform="translate(0.5 0.5)"/><path class="cls-4" d="M404.26,120.78c0,.3,0,.59-.07.89-.08.68-.06.57.06-.34.13.14-.23,1.33-.28,1.53a24.32,24.32,0,0,1-.77,2.61c-.34,1,.63-1.32.15-.35-.16.31-.31.63-.48.95-.3.53-.67,1-1,1.51,1.12-1.83.51-.65.05-.16a8.18,8.18,0,0,1-.68.64c-.38.33-1.28.85.33-.23-.25.17-.49.37-.74.54a25,25,0,0,1-2.57,1.59,5.94,5.94,0,0,1-1.53.77c.77-.32.84-.35.2-.09l-1.86.78c-.34.15-1.47.86-.26.12a10.88,10.88,0,0,1-1.59.61,14.53,14.53,0,0,0-7,5,11,11,0,0,0-1.54,7.26,40.32,40.32,0,0,1,.07,6,6,6,0,0,0,6,6,6.14,6.14,0,0,0,6-6,41.7,41.7,0,0,0-.07-6c0-.38-.06-.75-.08-1.13,0-.63.3-1.88-.12,0,.18-.59.08-.41-.28.55.31-.51.2-.39-.32.36a5,5,0,0,1,.54-.49c-.73.55-.86.65-.37.31a10,10,0,0,0,1-.55c.41-.19.19-.1-.64.26l.74-.28c.91-.36,1.81-.72,2.71-1.11.27-.11,2.15-1,.69-.29a37.83,37.83,0,0,0,6.34-3.31,20.35,20.35,0,0,0,5.83-5.79c2.34-3.6,3.22-8,3.52-12.16.22-3.14-2.92-6.14-6-6a6.14,6.14,0,0,0-6,6Z" transform="translate(0.5 0.5)"/><ellipse class="cls-4" cx="391.54" cy="168.35" rx="6.62" ry="6.17"/><path class="cls-4" d="M397.06,167.85a5.66,5.66,0,0,1-4,5.24,6.39,6.39,0,0,1-6.72-1.73,5.28,5.28,0,0,1-.52-6.32,6.25,6.25,0,0,1,6.35-2.65,5.77,5.77,0,0,1,4.87,5.46.6.6,0,0,0,1.2,0,6.88,6.88,0,0,0-4.78-6.36,7.55,7.55,0,0,0-8.08,2.14,6.49,6.49,0,0,0-.51,7.78,7.51,7.51,0,0,0,7.62,3.07,7,7,0,0,0,5.75-6.63A.6.6,0,0,0,397.06,167.85Z" transform="translate(0.5 0.5)"/><path class="cls-4" d="M397.29,142.25c0,.06-.41.36-.86.86a4,4,0,0,0-.87,1.73v-1.73C396.93,142.34,397.26,142.21,397.29,142.25Z" transform="translate(0.5 0.5)"/><path class="cls-4" d="M395.56,143.11" transform="translate(0.5 0.5)"/><rect class="cls-5" x="385.71" y="143.11" width="1.73" height="7.78" transform="translate(-1.27 5.23) rotate(-0.7)"/><rect class="cls-5" x="391.08" y="143.79" width="7.78" height="1.73" transform="translate(216.95 526.02) rotate(-85)"/><rect class="cls-6" x="47" y="243.26" width="50.96" height="39.42" rx="12"/><polyline class="cls-6" points="97.96 254.8 97.96 269.22 110.45 276.91 110.45 246.15 97.96 254.8 110.45 246.15 110.45 276.91 97.96 269.22 110.45 276.91"/><path class="cls-6" d="M97.45,254.08" transform="translate(0.5 0.5)"/><polygon class="cls-6" points="97.95 254.58 110.45 246.15 110.45 276.91 97.96 269.22 97.95 254.58"/><path class="cls-7" d="M95.52,259.51" transform="translate(0.5 0.5)"/><path class="cls-6" d="M152.34,258.57a9.72,9.72,0,0,0,19.42,0v-25a9.72,9.72,0,0,0-19.42,0" transform="translate(0.5 0.5)"/><path class="cls-6" d="M175.54,260.37c-.73,16.4-26.2,16.44-26.94,0-.14-3.21-5.14-3.22-5,0a18.49,18.49,0,0,0,36.94,0c.15-3.22-4.86-3.21-5,0Z" transform="translate(0.5 0.5)"/><path class="cls-6" d="M159.57,276v17.91c0,3.22,5,3.23,5,0V276c0-3.21-5-3.22-5,0Z" transform="translate(0.5 0.5)"/><path class="cls-6" d="M171.78,291.44H152.36c-3.22,0-3.22,5,0,5h19.42c3.22,0,3.23-5,0-5Z" transform="translate(0.5 0.5)"/><path class="cls-6" d="M226.81,243.15l14.79,14.78,23.59,23.59,5.45,5.45c3.33,3.33,9.44,3.58,12.72,0a9.16,9.16,0,0,0,0-12.73l-14.78-14.78L245,235.87l-5.45-5.45c-3.33-3.34-9.44-3.58-12.73,0a9.16,9.16,0,0,0,0,12.73Z" transform="translate(0.5 0.5)"/><path class="cls-6" d="M270.64,230.42,255.85,245.2l-23.59,23.59-5.45,5.45c-3.33,3.34-3.58,9.44,0,12.73a9.16,9.16,0,0,0,12.73,0l14.78-14.78,23.59-23.59,5.45-5.45c3.34-3.34,3.59-9.44,0-12.73a9.15,9.15,0,0,0-12.72,0Z" transform="translate(0.5 0.5)"/><rect class="cls-8" x="46.66" y="329" width="50.96" height="39.42" rx="12"/><polyline class="cls-8" points="97.62 340.54 97.62 354.96 110.12 362.65 110.12 331.88 97.62 340.54 110.12 331.88 110.12 362.65 97.62 354.96 110.12 362.65"/><path class="cls-8" d="M97.12,339.82" transform="translate(0.5 0.5)"/><polygon class="cls-8" points="97.62 340.32 110.12 331.88 110.12 362.65 97.62 354.96 97.62 340.32"/><path class="cls-8" d="M97.87,341.12l12.51-8.44-2.26-1.3v30.77l2.26-1.3-12.5-7.69.74,1.3V339.82a1.5,1.5,0,0,0-3,0V353c0,.49-.05,1,0,1.51.11,1,.82,1.34,1.57,1.8l6.37,3.92,5.3,3.27a1.52,1.52,0,0,0,2.26-1.3V331.38a1.51,1.51,0,0,0-2.26-1.29l-12.5,8.43C94.77,339.6,96.27,342.2,97.87,341.12Z" transform="translate(0.5 0.5)"/><path class="cls-7" d="M95.19,345.25" transform="translate(0.5 0.5)"/><path class="cls-8" d="M152,344.31a9.73,9.73,0,0,0,19.43,0v-25a9.73,9.73,0,0,0-19.43,0" transform="translate(0.5 0.5)"/><path class="cls-8" d="M175.2,346.11c-.73,16.4-26.2,16.43-26.93,0-.15-3.21-5.15-3.23-5,0a18.48,18.48,0,0,0,36.93,0c.15-3.22-4.85-3.21-5,0Z" transform="translate(0.5 0.5)"/><path class="cls-8" d="M159.23,361.77v17.91c0,3.22,5,3.22,5,0V361.77c0-3.22-5-3.22-5,0Z" transform="translate(0.5 0.5)"/><path class="cls-8" d="M171.45,377.18H152c-3.22,0-3.22,5,0,5h19.43c3.21,0,3.22-5,0-5Z" transform="translate(0.5 0.5)"/><path class="cls-9" d="M226.49,328.37l14.78,14.79,23.59,23.59,5.45,5.45c3.33,3.33,9.44,3.58,12.73,0a9.16,9.16,0,0,0,0-12.73l-14.79-14.78L244.66,321.1l-5.45-5.45c-3.33-3.34-9.44-3.59-12.72,0a9.15,9.15,0,0,0,0,12.72Z" transform="translate(0.5 0.5)"/><path class="cls-9" d="M270.31,315.65l-14.78,14.78L231.94,354l-5.45,5.45c-3.34,3.33-3.59,9.44,0,12.73a9.15,9.15,0,0,0,12.72,0L254,357.41l23.59-23.59,5.45-5.45c3.33-3.33,3.58-9.44,0-12.72a9.16,9.16,0,0,0-12.73,0Z" transform="translate(0.5 0.5)"/><rect class="cls-8" x="48.77" y="9.49" width="33.55" height="40.56" rx="12"/><rect class="cls-10" x="84.47" y="9.49" width="33.55" height="40.56" rx="12"/><rect class="cls-11" x="120.17" y="9.49" width="33.55" height="40.56" rx="12"/><rect class="cls-12" x="190.95" y="9.49" width="33.55" height="40.56" rx="12"/><rect class="cls-7" x="225.88" y="9.49" width="33.55" height="40.56" rx="12"/><rect class="cls-13" x="156.02" y="9.49" width="33.55" height="40.56" rx="12"/><rect class="cls-6" x="13.27" y="9.79" width="33.55" height="40.56" rx="12"/><rect class="cls-14" x="260.91" y="9.79" width="33.55" height="40.56" rx="12"/><path class="cls-7" d="M240.43,118.49" transform="translate(0.5 0.5)"/><rect class="cls-10" x="45.57" y="414.54" width="50.96" height="39.42" rx="12"/><polyline class="cls-10" points="96.53 426.08 96.53 440.5 109.03 448.2 109.03 417.43 96.53 426.08 109.03 417.43 109.03 448.2 96.53 440.5 109.03 448.2"/><path class="cls-10" d="M96,425.37" transform="translate(0.5 0.5)"/><polygon class="cls-10" points="96.53 425.87 109.03 417.43 109.03 448.2 96.53 440.5 96.53 425.87"/><path class="cls-15" d="M94.1,430.8" transform="translate(0.5 0.5)"/><path class="cls-10" d="M150.92,429.85a9.72,9.72,0,0,0,19.42,0v-25a9.72,9.72,0,0,0-19.42,0" transform="translate(0.5 0.5)"/><path class="cls-10" d="M174.12,431.65c-.74,16.4-26.2,16.44-26.94,0-.14-3.2-5.14-3.22-5,0a18.49,18.49,0,0,0,36.94,0c.14-3.22-4.86-3.21-5,0Z" transform="translate(0.5 0.5)"/><path class="cls-10" d="M158.15,447.32v17.91c0,3.21,5,3.22,5,0V447.32c0-3.22-5-3.23-5,0Z" transform="translate(0.5 0.5)"/><path class="cls-10" d="M170.36,462.73H150.94c-3.22,0-3.23,5,0,5h19.42c3.22,0,3.23-5,0-5Z" transform="translate(0.5 0.5)"/><path class="cls-10" d="M225.44,412.59l14.78,14.78L263.81,451l5.45,5.45c3.34,3.34,9.44,3.58,12.73,0a9.16,9.16,0,0,0,0-12.73L267.21,428.9l-23.59-23.59-5.45-5.45c-3.34-3.33-9.44-3.58-12.73,0a9.16,9.16,0,0,0,0,12.73Z" transform="translate(0.5 0.5)"/><path class="cls-10" d="M269.26,399.86l-14.78,14.78-23.59,23.6-5.45,5.44c-3.33,3.34-3.58,9.44,0,12.73a9.16,9.16,0,0,0,12.73,0L253,441.63,276.54,418l5.45-5.45c3.34-3.34,3.58-9.44,0-12.73a9.16,9.16,0,0,0-12.73,0Z" transform="translate(0.5 0.5)"/><rect class="cls-11" x="44.96" y="499.94" width="50.96" height="39.42" rx="12"/><polyline class="cls-11" points="95.92 511.48 95.92 525.9 108.42 533.59 108.42 502.82 95.92 511.48 108.42 502.82 108.42 533.59 95.92 525.9 108.42 533.59"/><path class="cls-11" d="M95.42,510.76" transform="translate(0.5 0.5)"/><polygon class="cls-11" points="95.92 511.26 108.42 502.82 108.42 533.59 95.92 525.9 95.92 511.26"/><path class="cls-16" d="M93.49,516.19" transform="translate(0.5 0.5)"/><path class="cls-11" d="M150.31,515.25a9.72,9.72,0,0,0,19.42,0v-25a9.72,9.72,0,0,0-19.42,0" transform="translate(0.5 0.5)"/><path class="cls-11" d="M173.51,517.05c-.74,16.4-26.2,16.43-26.94,0-.14-3.21-5.14-3.23-5,0a18.49,18.49,0,0,0,36.94,0c.14-3.22-4.86-3.21-5,0Z" transform="translate(0.5 0.5)"/><path class="cls-11" d="M157.54,532.71v17.91c0,3.22,5,3.22,5,0V532.71c0-3.21-5-3.22-5,0Z" transform="translate(0.5 0.5)"/><path class="cls-11" d="M173.28,548.35h-26.4c-3.22,0-3.22,5,0,5h26.4c3.21,0,3.22-5,0-5Z" transform="translate(0.5 0.5)"/><path class="cls-11" d="M224.85,496.66l14.79,14.78L263.23,535l5.45,5.45c3.33,3.34,9.44,3.58,12.72,0a9.16,9.16,0,0,0,0-12.73L266.62,513,243,489.38l-5.45-5.45c-3.33-3.33-9.44-3.58-12.73,0a9.16,9.16,0,0,0,0,12.73Z" transform="translate(0.5 0.5)"/><path class="cls-11" d="M268.68,483.93l-14.79,14.78L230.3,522.3l-5.45,5.45c-3.33,3.34-3.58,9.44,0,12.73a9.16,9.16,0,0,0,12.73,0l14.78-14.78L276,502.11l5.45-5.45c3.34-3.34,3.59-9.44,0-12.73a9.15,9.15,0,0,0-12.72,0Z" transform="translate(0.5 0.5)"/><rect class="cls-13" x="45.25" y="585.72" width="50.96" height="39.42" rx="12"/><polyline class="cls-13" points="96.21 597.26 96.21 611.68 108.7 619.37 108.7 588.61 96.21 597.26 108.7 588.61 108.7 619.37 96.21 611.68 108.7 619.37"/><path class="cls-13" d="M95.7,596.54" transform="translate(0.5 0.5)"/><polygon class="cls-13" points="96.2 597.04 108.7 588.61 108.7 619.37 96.21 611.68 96.2 597.04"/><path class="cls-17" d="M93.77,602" transform="translate(0.5 0.5)"/><path class="cls-13" d="M150.59,601A9.72,9.72,0,0,0,170,601V576a9.72,9.72,0,0,0-19.42,0" transform="translate(0.5 0.5)"/><path class="cls-13" d="M173.79,602.83c-.73,16.4-26.2,16.44-26.94,0-.14-3.2-5.14-3.22-5,0a18.49,18.49,0,0,0,36.94,0c.15-3.22-4.86-3.21-5,0Z" transform="translate(0.5 0.5)"/><path class="cls-13" d="M157.82,618.49V636.4c0,3.22,5,3.23,5,0V618.49c0-3.21-5-3.22-5,0Z" transform="translate(0.5 0.5)"/><path class="cls-13" d="M176.2,634.24H144.36c-3.22,0-3.22,5,0,5H176.2c3.22,0,3.23-5,0-5Z" transform="translate(0.5 0.5)"/><path class="cls-13" d="M225.13,582.44l14.79,14.78,23.59,23.6,5.45,5.44c3.33,3.34,9.44,3.59,12.72,0a9.15,9.15,0,0,0,0-12.72L266.9,598.75l-23.59-23.59-5.45-5.45c-3.33-3.33-9.44-3.58-12.73,0a9.16,9.16,0,0,0,0,12.73Z" transform="translate(0.5 0.5)"/><path class="cls-13" d="M269,569.71,254.17,584.5l-23.59,23.59-5.45,5.45c-3.33,3.33-3.58,9.44,0,12.72a9.16,9.16,0,0,0,12.73,0l14.78-14.78,23.6-23.59,5.44-5.45c3.34-3.33,3.59-9.44,0-12.73a9.15,9.15,0,0,0-12.72,0Z" transform="translate(0.5 0.5)"/><rect class="cls-12" x="45.55" y="681.98" width="50.96" height="39.42" rx="12"/><polyline class="cls-12" points="96.51 693.52 96.51 707.94 109.01 715.63 109.01 684.87 96.51 693.52 109.01 684.87 109.01 715.63 96.51 707.94 109.01 715.63"/><path class="cls-12" d="M96,692.8" transform="translate(0.5 0.5)"/><polygon class="cls-12" points="96.5 693.3 109.01 684.87 109.01 715.63 96.51 707.94 96.5 693.3"/><path class="cls-18" d="M94.08,698.23" transform="translate(0.5 0.5)"/><path class="cls-12" d="M150.89,697.29a9.72,9.72,0,0,0,19.42,0v-25a9.72,9.72,0,0,0-19.42,0" transform="translate(0.5 0.5)"/><path class="cls-12" d="M174.09,699.09c-.73,16.4-26.2,16.44-26.94,0-.14-3.21-5.14-3.22-5,0a18.49,18.49,0,0,0,36.94,0c.15-3.22-4.85-3.21-5,0Z" transform="translate(0.5 0.5)"/><path class="cls-12" d="M158.12,714.75v17.91c0,3.22,5,3.23,5,0V714.75c0-3.21-5-3.22-5,0Z" transform="translate(0.5 0.5)"/><path class="cls-12" d="M225.43,678.7l14.79,14.78,23.59,23.59,5.45,5.45c3.33,3.34,9.44,3.59,12.73,0a9.16,9.16,0,0,0,0-12.72L267.2,695l-23.59-23.59L238.16,666c-3.33-3.33-9.44-3.58-12.73,0a9.18,9.18,0,0,0,0,12.73Z" transform="translate(0.5 0.5)"/><path class="cls-12" d="M269.26,666l-14.78,14.79-23.6,23.59-5.45,5.45c-3.33,3.33-3.58,9.44,0,12.72a9.16,9.16,0,0,0,12.73,0L253,707.74l23.59-23.59L282,678.7c3.33-3.33,3.58-9.44,0-12.73a9.16,9.16,0,0,0-12.73,0Z" transform="translate(0.5 0.5)"/><path class="cls-12" d="M177.26,730.2H145.42c-3.22,0-3.23,5,0,5h31.84c3.22,0,3.23-5,0-5Z" transform="translate(0.5 0.5)"/><rect class="cls-19" x="0.5" y="0.5" width="800" height="800"/><text class="cls-20" transform="translate(360.92 690.73) scale(1.15 1)">SoundBit.</text><path class="cls-19" d="M490,643.93c8.88,17.77-22.58,49-70.28,69.74-42.06,18.29-95.54,20.13-102.45,5.39-5.55-11.86,19.3-33.84,31.36-44.52a153.78,153.78,0,0,1,38.92-25.22C425.32,632.85,481.82,627.61,490,643.93Z" transform="translate(0.5 0.5)"/><path class="cls-19" d="M321.92,686.6c-1.32-16.21,4.82-38.79,19.59-43.36.63-.19,11.52-3.42,19,1.36.63.4,1.8,1.39,4.15,3.36,6,5,7.2,6.67,9.89,8.67A36.33,36.33,0,0,0,385.91,662c10.52,2.68,16-5.79,32.51-10.76a72.75,72.75,0,0,1,36.1-1.31,58.59,58.59,0,0,1,23.06,10.44c4.74,3.62,14.61,11.16,17.42,24.32.39,1.83,4,20.1-9.31,31.78-7,6.12-15.4,7.47-18.34,7.95a45.26,45.26,0,0,1-19.6-1.32c-2.56-.74-5.19-1.76-9.73-3.52-5.06-2-6-2.47-9.77-4a79.36,79.36,0,0,0-19.39-6c-2.37-.36-5.5-.51-11.76-.79-7.23-.33-10.84-.49-14.48-.09a62.19,62.19,0,0,0-14.22,3.52c-9.33,3.14-9.73,4.77-14.62,5.63a28.8,28.8,0,0,1-18-3C323.68,708.19,322.44,692.88,321.92,686.6Z" transform="translate(0.5 0.5)"/><path class="cls-19" d="M326.92,686.21c-.6-5.23-1.58-22,9.79-32.85,2.32-2.22,6.35-6.1,12.84-7.07a20.73,20.73,0,0,1,11.36,1.45c3.21,1.46,4.16,3,9.18,7.48,3.27,2.88,6.11,5.07,8,6.48l6.24,3.43a14.82,14.82,0,0,0,5,.87c1.59,0,3.46-.27,7.16-1.79a52,52,0,0,0,9.26-5,51,51,0,0,1,7.62-4.4c17-8,34.1-4.69,38.39-3.74h0a53.59,53.59,0,0,1,21.36,10c2.94,2.3,19.62,15.37,18.16,34.08-.2,2.6-.94,12-8.8,19.28-6.53,6-14.49,7.33-18.34,8a44.7,44.7,0,0,1-17.58-.78c-1.09-.27-2-.54-2-.54-3.78-1.12-5-2.1-9.56-4l-4.59-1.78-5.74-2.23a117.44,117.44,0,0,0-19-5.57,79.68,79.68,0,0,0-11.59-1.26,78.58,78.58,0,0,0-15,1A101.78,101.78,0,0,0,365,710.81c-9.69,2.91-10.83,4.19-14.73,4-5.93-.27-10.24-3.53-12.06-4.93C328.81,702.75,327.52,691.45,326.92,686.21Z" transform="translate(0.5 0.5)"/><path class="cls-19" d="M332.24,685.53c-.42-5.48-1.07-15.94,5.3-25.8,3.82-5.9,7.74-7.86,8.84-8.37A20,20,0,0,1,359.09,650c3,.76,4.42,2,9.35,5.79,14.32,11,17.13,11.67,19.35,11.81,3.4.22,6.21-.83,10.47-2.41a44.4,44.4,0,0,0,10.36-5.53c8.66-6,26.57-10.59,42.63-6.32a47.59,47.59,0,0,1,19.36,10.56c3.35,2.92,17.64,15.38,15.56,31.84A29.37,29.37,0,0,1,479,711.29a31.52,31.52,0,0,1-13.64,8.56,61.49,61.49,0,0,1-8.83,1.09,41.15,41.15,0,0,1-6.69-.08,37.47,37.47,0,0,1-6.22-1.16c-1.48-.53-2.66-1-3.44-1.33-2.39-1-2.9-1.38-5.18-2.26-1-.37-1.33-.48-2.3-.89-1.53-.65-2.61-1.22-2.88-1.37-2.34-1.23-7.42-3.41-10-4.42a71.44,71.44,0,0,0-14.2-3.74,76.7,76.7,0,0,0-11.58-.93,80.16,80.16,0,0,0-15,1,101.33,101.33,0,0,0-14.4,3.66c-7.62,2.41-8.93,3.54-12.56,3.42a20,20,0,0,1-10.88-4C333.59,703.23,332.86,693.75,332.24,685.53Z" transform="translate(0.5 0.5)"/><path class="cls-19" d="M336,685.28c-.49-5.68-1.08-13.89,3.32-22.56,3.15-6.21,6.62-8.24,7.69-8.81a18.59,18.59,0,0,1,11.56-1.8c3.71.64,5.7,2.21,11,6,9.94,7.11,15,10.67,17.71,11,4.58.6,8.56-1.16,16.5-4.68,7.55-3.35,8.22-4.92,13.08-7.17,10.68-5,24.1-5.07,34.42-1.4a52.85,52.85,0,0,1,16.34,9.85c2.43,2.23,15.53,14.25,14,30.26a23.43,23.43,0,0,1-5.13,13.32c-5.29,6.43-13.26,8.39-15.49,8.81-.8.14-3.28.53-6.28.81-1.6.15-2.84.22-3.88.25a23.7,23.7,0,0,1-5.58-.15,31.88,31.88,0,0,1-4-1.3c-2-.72-3.12-1.12-4.59-1.78s-1.66-.86-4.4-2.19c-1.18-.58-2-1-2.89-1.37-5.05-2.28-7.57-3.42-9.22-4.08a74.5,74.5,0,0,0-13.65-3.78,56.86,56.86,0,0,0-26.76-.34c-6.09,1-9.89,1.71-14.77,3.56-5.9,2.24-7.44,4-11.41,3.86a15.92,15.92,0,0,1-8.59-3.07C337.51,703.39,336.69,693.8,336,685.28Z" transform="translate(0.5 0.5)"/><path class="cls-19" d="M338.45,686.33c-.65-5.22-1.5-12.7,2.05-21,1.37-3.19,3-6.83,7.11-9.29a17,17,0,0,1,11-2.28c1.16.18,3.33.65,10.56,5.65,3.66,2.53,6.56,4.81,8.59,6.47a21,21,0,0,0,10.74,4.83c7.35.87,10.6-3.33,22.48-8.51,7.53-3.28,21.68-9.26,34.27-5.26a43.1,43.1,0,0,1,4.53,1.79c3.94,1.73,11.41,4.83,17,10.84,2.4,2.59,9.35,10.12,9.39,21.21,0,2.33,0,10.38-6,17a23.59,23.59,0,0,1-10.06,6.89,43.33,43.33,0,0,1-8.24,1.58,38.39,38.39,0,0,1-5.54.36,34.15,34.15,0,0,1-3.92-.26,22.73,22.73,0,0,1-4-.79,27,27,0,0,1-3.44-1.33c-1.4-.64-2-1-3.48-1.85-.86-.47-2.12-1.08-4.63-2.3-3.68-1.78-5.54-2.62-6.92-3.18-1.86-.75-3.39-1.28-5.28-1.93-1.58-.55-2.61-.9-4-1.3-2.29-.66-4.08-1-5.1-1.23a72.91,72.91,0,0,0-10.69-1.38,68.91,68.91,0,0,0-15.94,1.24,62.56,62.56,0,0,0-14.18,4c-4.07,1.77-6.11,3.26-9.78,3.24a15,15,0,0,1-7.4-2.12C340.59,703.39,339.46,694.39,338.45,686.33Z" transform="translate(0.5 0.5)"/><path class="cls-19" d="M341.19,685.21c-.48-4-.89-7.41.11-11.94.75-3.41,2.43-11,9.33-14.83a15.18,15.18,0,0,1,8.58-2.08c3.05.25,5.78,2,11.13,5.6,4.34,2.88,4.81,3.66,8.56,5.94a59.38,59.38,0,0,0,7.38,3.91c7.46,2.87,14.11-4,27-8.34,5-1.71,20.12-6.85,34.3-1.23A35.56,35.56,0,0,1,462,672.94c2.13,2.68,6.82,8.73,6.75,17.28a22.34,22.34,0,0,1-3.94,12.92,25,25,0,0,1-6.11,6,20.94,20.94,0,0,1-6.83,3.49,50.25,50.25,0,0,1-10.29,1.17,25,25,0,0,1-3.29-.29,16.69,16.69,0,0,1-3.34-.79l-1.12-.44-2.25-.86a46.61,46.61,0,0,1-4.54-2.24c-2.85-1.49-5.24-2.47-6.78-3.1-.88-.36-.37-.13-4.5-1.73-2.9-1.12-3.35-1.31-4.49-1.73-2.37-.87-4.35-1.49-5-1.7a40.26,40.26,0,0,0-11-1.31,67,67,0,0,0-15.75,1,77.75,77.75,0,0,0-13.36,3.91,15,15,0,0,1-9.08,2.62,14.72,14.72,0,0,1-8.15-3.07C342.93,699.67,342.05,692.37,341.19,685.21Z" transform="translate(0.5 0.5)"/><path class="cls-19" d="M344.39,684.83a30.4,30.4,0,0,1,.77-9.62c.81-3.19,2-7.9,6.38-11.32a12.78,12.78,0,0,1,7-3.06c.24,0,.41,0,.52,0,4.43-.09,8.93,2.35,9.67,2.76,5.31,2.92,5.5,4.19,10.27,6.92a34.12,34.12,0,0,0,7.36,3.39c7.7,2.07,12.06-4.06,25.8-8.62,3.67-1.21,13.36-4.33,23.45-2.93a35.7,35.7,0,0,1,12.55,4,30.42,30.42,0,0,1,10.76,10,25.75,25.75,0,0,1,4.86,12.82,16.55,16.55,0,0,1-1.53,9.35,19.42,19.42,0,0,1-4.58,5.65,20.18,20.18,0,0,1-4.77,3.23,23.92,23.92,0,0,1-5.42,1.81,40.58,40.58,0,0,1-5,.81,33.09,33.09,0,0,1-5.54.37,19.5,19.5,0,0,1-2.8-.31,21.76,21.76,0,0,1-2.84-.79c-1.07-.34-1.89-.66-2.29-.82-1.77-.7-2.7-1.21-4.61-2.13-1.56-.76-.94-.42-4.61-2.14-3.37-1.57-3.5-1.67-4.61-2.13-.75-.31-1.72-.69-4.58-1.65s-4.84-1.62-6.27-2a40.16,40.16,0,0,0-11.22-1.21,55.22,55.22,0,0,0-15.43,2c-5.58,1.56-6.38,2.8-14.27,4.95-4.45,1.22-6.91,1.56-9.41.61s-4-2.9-5.37-4.84C344.92,694.59,344.59,689,344.39,684.83Z" transform="translate(0.5 0.5)"/><path class="cls-19" d="M346.47,687.08a31.17,31.17,0,0,1,2.32-13.66,12.54,12.54,0,0,1,5.39-6.61,16.21,16.21,0,0,1,6.52-2.22,17,17,0,0,1,6.45,1.1c3.83,1.31,5.5,2.79,9.07,4.89a63.31,63.31,0,0,0,9.06,4.37,21,21,0,0,0,5.58.34,22.87,22.87,0,0,0,3.86-.64c5.1-1.2,11.2-5.37,11.47-5.56A46.44,46.44,0,0,1,421.6,665a53.61,53.61,0,0,1,16.09,1.36,27.51,27.51,0,0,1,2.9.92,31.87,31.87,0,0,1,6.34,3.43c2.72,1.79,6.32,4.15,9,8.41a16.85,16.85,0,0,1,1.28,17,16.72,16.72,0,0,1-3,4.7,20.26,20.26,0,0,1-4.2,3.42,16.41,16.41,0,0,1-4.3,2.08,27.62,27.62,0,0,1-4.4.74,29.54,29.54,0,0,1-5,.32,20.61,20.61,0,0,1-2.81-.26,21.14,21.14,0,0,1-2.83-.72c-1.47-.46-2.12-.78-4-1.54-2.27-.91-2-.73-4-1.53-2.71-1.1-2.66-1.22-4.6-1.95-1.75-.66-3.17-1.09-4.57-1.5-1.86-.56-3.33-.93-4-1.09-1.49-.38-3.92-1-6.69-1.55a55,55,0,0,0-8.95-1.26,40.44,40.44,0,0,0-8.86.8,98.12,98.12,0,0,0-14.94,3.74c-1.77.59-3.16,1-5.43,1.64-3.28.89-5.73,1.29-8.31.54a10.8,10.8,0,0,1-5-3.43C347.3,695,346.76,689.89,346.47,687.08Z" transform="translate(0.5 0.5)"/><text class="cls-20" transform="translate(364.92 581.73) scale(1.15 1)">SoundBit.</text><path class="cls-19" d="M494,534.93c8.88,17.77-22.58,49-70.28,69.74-42.06,18.29-95.54,20.13-102.45,5.39-5.55-11.86,19.3-33.84,31.36-44.52a153.78,153.78,0,0,1,38.92-25.22C429.32,523.85,485.82,518.61,494,534.93Z" transform="translate(0.5 0.5)"/><path class="cls-21" d="M325.92,577.6c-1.32-16.21,4.82-38.79,19.59-43.36.63-.19,11.52-3.42,19,1.36.63.4,1.8,1.39,4.15,3.36,6,5,7.2,6.67,9.89,8.67A36.33,36.33,0,0,0,389.91,553c10.52,2.68,16-5.79,32.51-10.76a72.75,72.75,0,0,1,36.1-1.31,58.59,58.59,0,0,1,23.06,10.44c4.74,3.62,14.61,11.16,17.42,24.32.39,1.83,4,20.1-9.31,31.78-7,6.12-15.4,7.47-18.34,7.95a45.26,45.26,0,0,1-19.6-1.32c-2.56-.74-5.19-1.76-9.73-3.52-5.06-2-6-2.47-9.77-4a79.36,79.36,0,0,0-19.39-6c-2.37-.36-5.5-.51-11.76-.79-7.23-.33-10.84-.49-14.48-.09a62.19,62.19,0,0,0-14.22,3.52c-9.33,3.14-9.73,4.77-14.62,5.63a28.8,28.8,0,0,1-18-3C327.68,599.19,326.44,583.88,325.92,577.6Z" transform="translate(0.5 0.5)"/><path class="cls-21" d="M330.92,577.21c-.6-5.23-1.58-22,9.79-32.85,2.32-2.22,6.35-6.1,12.84-7.07a20.73,20.73,0,0,1,11.36,1.45c3.21,1.46,4.16,3,9.18,7.48,3.27,2.88,6.11,5.07,8,6.48l6.24,3.43a14.82,14.82,0,0,0,5,.87c1.59,0,3.46-.27,7.16-1.79a52,52,0,0,0,9.26-5,51,51,0,0,1,7.62-4.4c17-8,34.1-4.69,38.39-3.74h0a53.59,53.59,0,0,1,21.36,10c2.94,2.3,19.62,15.37,18.16,34.08-.2,2.6-.94,12-8.8,19.28-6.53,6-14.49,7.33-18.34,8a44.7,44.7,0,0,1-17.58-.78c-1.09-.27-2-.54-2-.54-3.78-1.12-5-2.1-9.56-4l-4.59-1.78-5.74-2.23a117.44,117.44,0,0,0-19-5.57,79.68,79.68,0,0,0-11.59-1.26,78.58,78.58,0,0,0-15,1A101.78,101.78,0,0,0,369,601.81c-9.69,2.91-10.83,4.19-14.73,4-5.93-.27-10.24-3.53-12.06-4.93C332.81,593.75,331.52,582.45,330.92,577.21Z" transform="translate(0.5 0.5)"/><path class="cls-15" d="M336.24,576.53c-.42-5.48-1.07-15.94,5.3-25.8,3.82-5.9,7.74-7.86,8.84-8.37A20,20,0,0,1,363.09,541c3,.76,4.42,2,9.35,5.79,14.32,11,17.13,11.67,19.35,11.81,3.4.22,6.21-.83,10.47-2.41a44.4,44.4,0,0,0,10.36-5.53c8.66-6,26.57-10.59,42.63-6.32a47.59,47.59,0,0,1,19.36,10.56c3.35,2.92,17.64,15.38,15.56,31.84A29.37,29.37,0,0,1,483,602.29a31.52,31.52,0,0,1-13.64,8.56,61.49,61.49,0,0,1-8.83,1.09,41.15,41.15,0,0,1-6.69-.08,37.47,37.47,0,0,1-6.22-1.16c-1.48-.53-2.66-1-3.44-1.33-2.39-1-2.9-1.38-5.18-2.26-1-.37-1.33-.48-2.3-.89-1.53-.65-2.61-1.22-2.88-1.37-2.34-1.23-7.42-3.41-10-4.42a71.44,71.44,0,0,0-14.2-3.74,76.7,76.7,0,0,0-11.58-.93,80.16,80.16,0,0,0-15,1,101.33,101.33,0,0,0-14.4,3.66c-7.62,2.41-8.93,3.54-12.56,3.42a20,20,0,0,1-10.88-4C337.59,594.23,336.86,584.75,336.24,576.53Z" transform="translate(0.5 0.5)"/><path class="cls-16" d="M340,576.28c-.49-5.68-1.08-13.89,3.32-22.56,3.15-6.21,6.62-8.24,7.69-8.81a18.59,18.59,0,0,1,11.56-1.8c3.71.64,5.7,2.21,11,6,9.94,7.11,15,10.67,17.71,11,4.58.6,8.56-1.16,16.5-4.68,7.55-3.35,8.22-4.92,13.08-7.17,10.68-5,24.1-5.07,34.42-1.4a52.85,52.85,0,0,1,16.34,9.85c2.43,2.23,15.53,14.25,14,30.26a23.43,23.43,0,0,1-5.13,13.32c-5.29,6.43-13.26,8.39-15.49,8.81-.8.14-3.28.53-6.28.81-1.6.15-2.84.22-3.88.25a23.7,23.7,0,0,1-5.58-.15,31.88,31.88,0,0,1-4-1.3c-2-.72-3.12-1.12-4.59-1.78s-1.66-.86-4.4-2.19c-1.18-.58-2-1-2.89-1.37-5.05-2.28-7.57-3.42-9.22-4.08a74.5,74.5,0,0,0-13.65-3.78,56.86,56.86,0,0,0-26.76-.34c-6.09,1-9.89,1.71-14.77,3.56-5.9,2.24-7.44,4-11.41,3.86a15.92,15.92,0,0,1-8.59-3.07C341.51,594.39,340.69,584.8,340,576.28Z" transform="translate(0.5 0.5)"/><path class="cls-17" d="M342.45,577.33c-.65-5.22-1.5-12.7,2.05-21,1.37-3.19,3-6.83,7.11-9.29a17,17,0,0,1,11-2.28c1.16.18,3.33.65,10.56,5.65,3.66,2.53,6.56,4.81,8.59,6.47a21,21,0,0,0,10.74,4.83c7.35.87,10.6-3.33,22.48-8.51,7.53-3.28,21.68-9.26,34.27-5.26a43.1,43.1,0,0,1,4.53,1.79c3.94,1.73,11.41,4.83,17,10.84,2.4,2.59,9.35,10.12,9.39,21.21,0,2.33,0,10.38-6,17a23.59,23.59,0,0,1-10.06,6.89,43.33,43.33,0,0,1-8.24,1.58,38.39,38.39,0,0,1-5.54.36,34.15,34.15,0,0,1-3.92-.26,22.73,22.73,0,0,1-4-.79,27,27,0,0,1-3.44-1.33c-1.4-.64-2-1-3.48-1.85-.86-.47-2.12-1.08-4.63-2.3-3.68-1.78-5.54-2.62-6.92-3.18-1.86-.75-3.39-1.28-5.28-1.93-1.58-.55-2.61-.9-4-1.3-2.29-.66-4.08-1-5.1-1.23a72.91,72.91,0,0,0-10.69-1.38,68.91,68.91,0,0,0-15.94,1.24,62.56,62.56,0,0,0-14.18,4c-4.07,1.77-6.11,3.26-9.78,3.24a15,15,0,0,1-7.4-2.12C344.59,594.39,343.46,585.39,342.45,577.33Z" transform="translate(0.5 0.5)"/><path class="cls-18" d="M345.19,576.21c-.48-4-.89-7.41.11-11.94.75-3.41,2.43-11,9.33-14.83a15.18,15.18,0,0,1,8.58-2.08c3.05.25,5.78,2,11.13,5.6,4.34,2.88,4.81,3.66,8.56,5.94a59.38,59.38,0,0,0,7.38,3.91c7.46,2.87,14.11-4,27-8.34,5-1.71,20.12-6.85,34.3-1.23A35.56,35.56,0,0,1,466,563.94c2.13,2.68,6.82,8.73,6.75,17.28a22.34,22.34,0,0,1-3.94,12.92,25,25,0,0,1-6.11,6,20.94,20.94,0,0,1-6.83,3.49,50.25,50.25,0,0,1-10.29,1.17,25,25,0,0,1-3.29-.29,16.69,16.69,0,0,1-3.34-.79l-1.12-.44-2.25-.86a46.61,46.61,0,0,1-4.54-2.24c-2.85-1.49-5.24-2.47-6.78-3.1-.88-.36-.37-.13-4.5-1.73-2.9-1.12-3.35-1.31-4.49-1.73-2.37-.87-4.35-1.49-5-1.7a40.26,40.26,0,0,0-11-1.31,67,67,0,0,0-15.75,1,77.75,77.75,0,0,0-13.36,3.91,15,15,0,0,1-9.08,2.62,14.72,14.72,0,0,1-8.15-3.07C346.93,590.67,346.05,583.37,345.19,576.21Z" transform="translate(0.5 0.5)"/><path class="cls-22" d="M348.39,575.83a30.4,30.4,0,0,1,.77-9.62c.81-3.19,2-7.9,6.38-11.32a12.78,12.78,0,0,1,7-3.06c.24,0,.41,0,.52,0,4.43-.09,8.93,2.35,9.67,2.76,5.31,2.92,5.5,4.19,10.27,6.92a34.12,34.12,0,0,0,7.36,3.39c7.7,2.07,12.06-4.06,25.8-8.62,3.67-1.21,13.36-4.33,23.45-2.93a35.7,35.7,0,0,1,12.55,4,30.42,30.42,0,0,1,10.76,10,25.75,25.75,0,0,1,4.86,12.82,16.55,16.55,0,0,1-1.53,9.35,19.42,19.42,0,0,1-4.58,5.65,20.18,20.18,0,0,1-4.77,3.23,23.92,23.92,0,0,1-5.42,1.81,40.58,40.58,0,0,1-5,.81,33.09,33.09,0,0,1-5.54.37,19.5,19.5,0,0,1-2.8-.31,21.76,21.76,0,0,1-2.84-.79c-1.07-.34-1.89-.66-2.29-.82-1.77-.7-2.7-1.21-4.61-2.13-1.56-.76-.94-.42-4.61-2.14-3.37-1.57-3.5-1.67-4.61-2.13-.75-.31-1.72-.69-4.58-1.65s-4.84-1.62-6.27-2a40.16,40.16,0,0,0-11.22-1.21,55.22,55.22,0,0,0-15.43,2c-5.58,1.56-6.38,2.8-14.27,4.95-4.45,1.22-6.91,1.56-9.41.61s-4-2.9-5.37-4.84C348.92,585.59,348.59,580,348.39,575.83Z" transform="translate(0.5 0.5)"/><path class="cls-23" d="M350.47,578.08a31.17,31.17,0,0,1,2.32-13.66,12.54,12.54,0,0,1,5.39-6.61,16.21,16.21,0,0,1,6.52-2.22,17,17,0,0,1,6.45,1.1c3.83,1.31,5.5,2.79,9.07,4.89a63.31,63.31,0,0,0,9.06,4.37,21,21,0,0,0,5.58.34,22.87,22.87,0,0,0,3.86-.64c5.1-1.2,11.2-5.37,11.47-5.56A46.44,46.44,0,0,1,425.6,556a53.61,53.61,0,0,1,16.09,1.36,27.51,27.51,0,0,1,2.9.92,31.87,31.87,0,0,1,6.34,3.43c2.72,1.79,6.32,4.15,9,8.41a16.85,16.85,0,0,1,1.28,17,16.72,16.72,0,0,1-3,4.7,20.26,20.26,0,0,1-4.2,3.42,16.41,16.41,0,0,1-4.3,2.08,27.62,27.62,0,0,1-4.4.74,29.54,29.54,0,0,1-5,.32,20.61,20.61,0,0,1-2.81-.26,21.14,21.14,0,0,1-2.83-.72c-1.47-.46-2.12-.78-4-1.54-2.27-.91-2-.73-4-1.53-2.71-1.1-2.66-1.22-4.6-1.95-1.75-.66-3.17-1.09-4.57-1.5-1.86-.56-3.33-.93-4-1.09-1.49-.38-3.92-1-6.69-1.55a55,55,0,0,0-8.95-1.26,40.44,40.44,0,0,0-8.86.8,98.12,98.12,0,0,0-14.94,3.74c-1.77.59-3.16,1-5.43,1.64-3.28.89-5.73,1.29-8.31.54a10.8,10.8,0,0,1-5-3.43C351.3,586,350.76,580.89,350.47,578.08Z" transform="translate(0.5 0.5)"/><text class="cls-24" transform="translate(367.92 468.73) scale(1.15 1)">SoundBit.</text><path class="cls-25" d="M497,421.93c8.88,17.77-22.58,49-70.28,69.74-42.06,18.29-95.54,20.13-102.45,5.39-5.55-11.86,19.3-33.84,31.36-44.52a153.78,153.78,0,0,1,38.92-25.22C432.32,410.85,488.82,405.61,497,421.93Z" transform="translate(0.5 0.5)"/><path class="cls-25" d="M328.92,464.6c-1.32-16.21,4.82-38.79,19.59-43.36.63-.19,11.52-3.42,19,1.36.63.4,1.8,1.39,4.15,3.36,6,5.05,7.2,6.67,9.89,8.67A36.33,36.33,0,0,0,392.91,440c10.52,2.68,16-5.79,32.51-10.76a72.75,72.75,0,0,1,36.1-1.31,58.59,58.59,0,0,1,23.06,10.44c4.74,3.62,14.61,11.16,17.42,24.32.39,1.83,4,20.1-9.31,31.78-7,6.12-15.4,7.47-18.34,7.95a45.26,45.26,0,0,1-19.6-1.32c-2.56-.74-5.19-1.76-9.73-3.52-5.06-2-6-2.47-9.77-4a79.36,79.36,0,0,0-19.39-6c-2.37-.36-5.5-.51-11.76-.79-7.23-.33-10.84-.49-14.48-.09a62.19,62.19,0,0,0-14.22,3.52c-9.33,3.14-9.73,4.77-14.62,5.63a28.8,28.8,0,0,1-18-3C330.68,486.19,329.44,470.88,328.92,464.6Z" transform="translate(0.5 0.5)"/><path class="cls-25" d="M333.92,464.21c-.6-5.23-1.58-22,9.79-32.85,2.32-2.22,6.35-6.1,12.84-7.07a20.73,20.73,0,0,1,11.36,1.45c3.21,1.46,4.16,3.05,9.18,7.48,3.27,2.88,6.11,5.07,8,6.48l6.24,3.43a14.82,14.82,0,0,0,5,.87c1.59,0,3.46-.27,7.16-1.79a52,52,0,0,0,9.26-5,51,51,0,0,1,7.62-4.4c17-8,34.1-4.69,38.39-3.74h0a53.59,53.59,0,0,1,21.36,10c2.94,2.3,19.62,15.37,18.16,34.08-.2,2.6-.94,12-8.8,19.28-6.53,6-14.49,7.33-18.34,7.95a44.7,44.7,0,0,1-17.58-.78c-1.09-.27-2-.54-2-.54-3.78-1.12-5-2.1-9.56-4l-4.59-1.78-5.74-2.23a117.44,117.44,0,0,0-19-5.57,79.68,79.68,0,0,0-11.59-1.26,78.58,78.58,0,0,0-15,1A101.78,101.78,0,0,0,372,488.81c-9.69,2.91-10.83,4.19-14.73,4-5.93-.27-10.24-3.53-12.06-4.93C335.81,480.75,334.52,469.45,333.92,464.21Z" transform="translate(0.5 0.5)"/><path class="cls-25" d="M339.24,463.53c-.42-5.48-1.07-15.94,5.3-25.8,3.82-5.9,7.74-7.86,8.84-8.37A20,20,0,0,1,366.09,428c3,.76,4.42,2,9.35,5.79,14.32,11,17.13,11.67,19.35,11.81,3.4.22,6.21-.83,10.47-2.41a44.4,44.4,0,0,0,10.36-5.53c8.66-6,26.57-10.59,42.63-6.32a47.59,47.59,0,0,1,19.36,10.56c3.35,2.92,17.64,15.38,15.56,31.84A29.37,29.37,0,0,1,486,489.29a31.52,31.52,0,0,1-13.64,8.56,61.49,61.49,0,0,1-8.83,1.09,41.15,41.15,0,0,1-6.69-.08,37.47,37.47,0,0,1-6.22-1.16c-1.48-.53-2.66-1-3.44-1.33-2.39-1-2.9-1.38-5.18-2.26-1-.37-1.33-.48-2.3-.89-1.53-.65-2.61-1.22-2.88-1.37-2.34-1.23-7.42-3.41-10-4.42a71.44,71.44,0,0,0-14.2-3.74,76.7,76.7,0,0,0-11.58-.93,80.16,80.16,0,0,0-15,1,101.33,101.33,0,0,0-14.4,3.66c-7.62,2.41-8.93,3.54-12.56,3.42a20,20,0,0,1-10.88-4C340.59,481.23,339.86,471.75,339.24,463.53Z" transform="translate(0.5 0.5)"/><path class="cls-25" d="M343,463.28c-.49-5.68-1.08-13.89,3.32-22.56,3.15-6.21,6.62-8.24,7.69-8.81a18.59,18.59,0,0,1,11.56-1.8c3.71.64,5.7,2.21,11,6,9.94,7.11,15,10.67,17.71,11,4.58.6,8.56-1.16,16.5-4.68,7.55-3.35,8.22-4.92,13.08-7.17,10.68-4.95,24.1-5.07,34.42-1.4a52.85,52.85,0,0,1,16.34,9.85c2.43,2.23,15.53,14.25,14,30.26a23.43,23.43,0,0,1-5.13,13.32c-5.29,6.43-13.26,8.39-15.49,8.81-.8.14-3.28.53-6.28.81-1.6.15-2.84.22-3.88.25a23.7,23.7,0,0,1-5.58-.15,31.88,31.88,0,0,1-4-1.3c-2-.72-3.12-1.12-4.59-1.78s-1.66-.86-4.4-2.19c-1.18-.58-2-1-2.89-1.37-5.05-2.28-7.57-3.42-9.22-4.08a74.5,74.5,0,0,0-13.65-3.78,56.86,56.86,0,0,0-26.76-.34c-6.09,1.05-9.89,1.71-14.77,3.56-5.9,2.24-7.44,4-11.41,3.86a15.92,15.92,0,0,1-8.59-3.07C344.51,481.39,343.69,471.8,343,463.28Z" transform="translate(0.5 0.5)"/><path class="cls-25" d="M345.45,464.33c-.65-5.22-1.5-12.7,2.05-21,1.37-3.19,3-6.83,7.11-9.29a17,17,0,0,1,11-2.28c1.16.18,3.33.65,10.56,5.65,3.66,2.53,6.56,4.81,8.59,6.47a21,21,0,0,0,10.74,4.83c7.35.87,10.6-3.33,22.48-8.51,7.53-3.28,21.68-9.26,34.27-5.26a43.1,43.1,0,0,1,4.53,1.79c3.94,1.73,11.41,4.83,17,10.84,2.4,2.59,9.35,10.12,9.39,21.21,0,2.33,0,10.38-6,17a23.59,23.59,0,0,1-10.06,6.89,43.33,43.33,0,0,1-8.24,1.58,38.39,38.39,0,0,1-5.54.36,34.15,34.15,0,0,1-3.92-.26,22.73,22.73,0,0,1-4-.79,27,27,0,0,1-3.44-1.33c-1.4-.64-2-1-3.48-1.85-.86-.47-2.12-1.08-4.63-2.3-3.68-1.78-5.54-2.62-6.92-3.18-1.86-.75-3.39-1.28-5.28-1.93-1.58-.55-2.61-.9-4-1.3-2.29-.66-4.08-1-5.1-1.23a72.91,72.91,0,0,0-10.69-1.38,68.91,68.91,0,0,0-15.94,1.24,62.56,62.56,0,0,0-14.18,4c-4.07,1.77-6.11,3.26-9.78,3.24a15,15,0,0,1-7.4-2.12C347.59,481.39,346.46,472.39,345.45,464.33Z" transform="translate(0.5 0.5)"/><path class="cls-25" d="M348.19,463.21c-.48-4-.89-7.41.11-11.94.75-3.41,2.43-11,9.33-14.83a15.18,15.18,0,0,1,8.58-2.08c3.05.25,5.78,2,11.13,5.6,4.34,2.88,4.81,3.66,8.56,5.94a59.38,59.38,0,0,0,7.38,3.91c7.46,2.87,14.11-4,27-8.34,5-1.71,20.12-6.85,34.3-1.23A35.56,35.56,0,0,1,469,450.94c2.13,2.68,6.82,8.73,6.75,17.28a22.34,22.34,0,0,1-3.94,12.92,25,25,0,0,1-6.11,6,20.94,20.94,0,0,1-6.83,3.49,50.25,50.25,0,0,1-10.29,1.17,25,25,0,0,1-3.29-.29,16.69,16.69,0,0,1-3.34-.79l-1.12-.44-2.25-.86a46.61,46.61,0,0,1-4.54-2.24c-2.85-1.49-5.24-2.47-6.78-3.1-.88-.36-.37-.13-4.5-1.73-2.9-1.12-3.35-1.31-4.49-1.73-2.37-.87-4.35-1.49-5-1.7a40.26,40.26,0,0,0-11-1.31,67,67,0,0,0-15.75,1,77.75,77.75,0,0,0-13.36,3.91,15,15,0,0,1-9.08,2.62,14.72,14.72,0,0,1-8.15-3.07C349.93,477.67,349.05,470.37,348.19,463.21Z" transform="translate(0.5 0.5)"/><path class="cls-25" d="M351.39,462.83a30.4,30.4,0,0,1,.77-9.62c.81-3.19,2-7.9,6.38-11.32a12.78,12.78,0,0,1,7-3.06c.24,0,.41,0,.52,0,4.43-.09,8.93,2.35,9.67,2.76,5.31,2.92,5.5,4.19,10.27,6.92a34.12,34.12,0,0,0,7.36,3.39c7.7,2.07,12.06-4.06,25.8-8.62,3.67-1.21,13.36-4.33,23.45-2.93a35.7,35.7,0,0,1,12.55,4.05,30.42,30.42,0,0,1,10.76,10,25.75,25.75,0,0,1,4.86,12.82,16.55,16.55,0,0,1-1.53,9.35,19.42,19.42,0,0,1-4.58,5.65,20.18,20.18,0,0,1-4.77,3.23,23.92,23.92,0,0,1-5.42,1.81,40.58,40.58,0,0,1-5,.81,33.09,33.09,0,0,1-5.54.37,19.5,19.5,0,0,1-2.8-.31,21.76,21.76,0,0,1-2.84-.79c-1.07-.34-1.89-.66-2.29-.82-1.77-.7-2.7-1.21-4.61-2.13-1.56-.76-.94-.42-4.61-2.14-3.37-1.57-3.5-1.67-4.61-2.13-.75-.31-1.72-.69-4.58-1.65s-4.84-1.62-6.27-2a40.16,40.16,0,0,0-11.22-1.21,55.22,55.22,0,0,0-15.43,2c-5.58,1.56-6.38,2.8-14.27,4.95-4.45,1.22-6.91,1.56-9.41.61s-4-2.9-5.37-4.84C351.92,472.59,351.59,467,351.39,462.83Z" transform="translate(0.5 0.5)"/><path class="cls-25" d="M353.47,465.08a31.17,31.17,0,0,1,2.32-13.66,12.54,12.54,0,0,1,5.39-6.61,16.21,16.21,0,0,1,6.52-2.22,17,17,0,0,1,6.45,1.1c3.83,1.31,5.5,2.79,9.07,4.89a63.31,63.31,0,0,0,9.06,4.37,21,21,0,0,0,5.58.34,22.87,22.87,0,0,0,3.86-.64c5.1-1.2,11.2-5.37,11.47-5.56A46.44,46.44,0,0,1,428.6,443a53.61,53.61,0,0,1,16.09,1.36,27.51,27.51,0,0,1,2.9.92,31.87,31.87,0,0,1,6.34,3.43c2.72,1.79,6.32,4.15,9,8.41a16.85,16.85,0,0,1,1.28,17,16.72,16.72,0,0,1-3,4.7,20.26,20.26,0,0,1-4.2,3.42,16.41,16.41,0,0,1-4.3,2.08,27.62,27.62,0,0,1-4.4.74,29.54,29.54,0,0,1-5,.32,20.61,20.61,0,0,1-2.81-.26,21.14,21.14,0,0,1-2.83-.72c-1.47-.46-2.12-.78-4-1.54-2.27-.91-2-.73-4-1.53-2.71-1.1-2.66-1.22-4.6-2-1.75-.66-3.17-1.09-4.57-1.5-1.86-.56-3.33-.93-4-1.09-1.49-.38-3.92-1-6.69-1.55a55,55,0,0,0-8.95-1.26,40.44,40.44,0,0,0-8.86.8,98.12,98.12,0,0,0-14.94,3.74c-1.77.59-3.16,1-5.43,1.64-3.28.89-5.73,1.29-8.31.54a10.8,10.8,0,0,1-5-3.43C354.3,473,353.76,467.89,353.47,465.08Z" transform="translate(0.5 0.5)"/></svg>