<svg id="Layer_1" data-name="Layer 1" xmlns="http://www.w3.org/2000/svg" viewBox="0 0 36.95 72.09"><defs><style>.cls-1{fill:#8493ca;}</style></defs><path class="cls-1" d="M23.67,42.79A9.47,9.47,0,0,0,33.38,52a9.47,9.47,0,0,0,9.72-9.21v-25a9.48,9.48,0,0,0-9.72-9.21,9.48,9.48,0,0,0-9.71,9.21" transform="translate(-14.93 -8.57)"/><path class="cls-1" d="M46.87,44.59c-.73,16.4-26.2,16.43-26.94,0-.14-3.21-5.14-3.22-5,0a18.49,18.49,0,0,0,36.94,0c.15-3.22-4.85-3.21-5,0Z" transform="translate(-14.93 -8.57)"/><path class="cls-1" d="M30.9,60.25V78.16c0,3.22,5,3.22,5,0V60.25c0-3.21-5-3.22-5,0Z" transform="translate(-14.93 -8.57)"/><path class="cls-1" d="M43.12,75.66H23.69c-3.22,0-3.22,5,0,5H43.12c3.21,0,3.22-5,0-5Z" transform="translate(-14.93 -8.57)"/></svg>