<svg id="Layer_1" data-name="Layer 1" xmlns="http://www.w3.org/2000/svg" viewBox="0 0 36.95 72.09"><defs><style>.cls-1{fill:#f4989d;}.cls-2{fill:#7da7d9;}</style></defs><path class="cls-1" d="M50.76,21" transform="translate(-1.93 -2.57)"/><path class="cls-2" d="M10.67,36.79A9.47,9.47,0,0,0,20.38,46a9.47,9.47,0,0,0,9.72-9.21v-25a9.48,9.48,0,0,0-9.72-9.21,9.48,9.48,0,0,0-9.71,9.21" transform="translate(-1.93 -2.57)"/><path class="cls-2" d="M33.87,38.59C33.14,55,7.67,55,6.93,38.59c-.14-3.21-5.14-3.22-5,0A18.35,18.35,0,0,0,20.4,56.23,18.35,18.35,0,0,0,38.87,38.59c.15-3.22-4.85-3.21-5,0Z" transform="translate(-1.93 -2.57)"/><path class="cls-2" d="M17.9,54.25V72.16c0,3.22,5,3.22,5,0V54.25c0-3.21-5-3.22-5,0Z" transform="translate(-1.93 -2.57)"/><path class="cls-2" d="M30.12,69.66H10.69c-3.22,0-3.22,5,0,5H30.12c3.21,0,3.22-5,0-5Z" transform="translate(-1.93 -2.57)"/></svg>