<svg id="Layer_1" data-name="Layer 1" xmlns="http://www.w3.org/2000/svg" viewBox="0 0 251 226"><defs><style>.cls-1{fill:#fff;}</style></defs><path class="cls-1" d="M218.79,85.51c-6.28-1.54-8.47-8.52-6.56-13.87-9.41-15.81-24-28.76-41.8-37a9.83,9.83,0,0,1-5.38,1.51,9.33,9.33,0,0,1-9.41-7.09,108.54,108.54,0,0,0-60-.23c-.71,4.43-4,8.38-9.72,8.38a9.54,9.54,0,0,1-6.51-2.35C61.59,43.3,47,56.51,37.7,72.61,40,78.11,37.79,85.69,31,87.1a79.47,79.47,0,0,0,.26,52.72c6.45,1.53,8.61,8.75,6.52,14.15,9.35,16.06,24,29.23,41.93,37.62a11.23,11.23,0,0,1,5.16-1.2,10.32,10.32,0,0,1,10.17,7,109.08,109.08,0,0,0,60.2,0,11.45,11.45,0,0,1,11.25-7.63,12.67,12.67,0,0,1,5.57,1.22c17.63-8.57,32-21.84,41.08-37.92-1.76-5.59.42-12.54,6.5-14.65a79.35,79.35,0,0,0-.88-52.9Zm-90.56,80.1c-.29,0-.55,0-.84,0s-.55,0-.84,0c-22.42,0-37.09-12.06-44-27.86a57,57,0,0,1,0-45.7c7-15.8,21.64-27.86,44-27.86.29,0,.56,0,.84,0s.55,0,.84,0C193.26,64.19,193.15,165.61,128.23,165.61Z"/><path class="cls-1" d="M250.12,97.28l-.92-1.86-1-2.11L246.33,92l-2.68-2.13-4-1.51-3.8-.7-17.21-1.94V138.5l1.11-.12a11.65,11.65,0,0,1,3.76-.65c.35,0,.65.08,1,.1l7.58-1.27,4.44-.57,2.87-.56,2.78-.62,1.85-.9,2.49-1.51,1.58-1.82,1.66-2.24.83-1.87.37-1.86V99.39Z"/><polyline class="cls-1" points="95.99 28.98 98.14 13.53 98.93 10.13 100.61 6.56 102.98 4.15 104.41 2.49 106.76 1.58 108.84 0.75 111.19 0 113.68 0 125.08 0 135.56 0 138.3 0 139.29 0 141.36 0.33 143.44 1.08 145.94 2.57 147.97 3.98 149.66 6.23 150.65 7.89 151.34 10.38 151.97 12.95 152.6 16.94 154.07 23.99 154.77 28.98"/><polyline class="cls-1" points="154.79 197.02 152.63 212.47 151.85 215.87 150.16 219.44 147.79 221.85 146.37 223.51 144.02 224.42 141.94 225.25 139.59 226 137.1 226 125.69 226 115.22 226 112.48 226 111.49 226 109.41 225.67 107.33 224.92 104.84 223.43 102.8 222.01 101.12 219.77 100.13 218.11 99.43 215.62 98.8 213.05 98.17 209.06 96.7 202.01 96.01 197.02"/><path class="cls-1" d="M28.72,87.32h-.09l-.59.06L20.17,88.7l-4.44.57-2.87.56-2.77.63-1.85.89-2.5,1.51L4.17,94.68,2.5,96.92l-.83,1.87-.37,1.86v25.22L2.13,128l.93,1.87,1,2.1,1.86,1.28,2.68,2.13,4,1.51,3.79.71,17.22,1.93V86.76L31.27,87A10.81,10.81,0,0,1,28.72,87.32Z"/><ellipse class="cls-1" cx="235.92" cy="101.46" rx="15.04" ry="13.49"/><path class="cls-1" d="M225,48.3l-.59-2.64-.88-1.84-1.2-1.55-.7-.63-1.94-1.74-7.41-6.65L204.26,26l-1.76-1.58-2.25-1-2.13-.73-2.38-.85-2.32.27-3.57.2-4,1.45-3.24,1.91-10,7a8.91,8.91,0,0,1-3.6,2.69l41.46,37.2,3.44-4,4.52-5.92,2.69-3.22,1.58-2.22,1.48-2.2.6-1.8.58-2.66Z"/><path class="cls-1" d="M79.47,34.87l-3.82-2.66-6.6-4.06-3.59-2.42L63,24.31,60.53,23l-2-.54-3-.52L53,22.22l-3,.53L48,23.54l-1.72,1.08-.71.63L43.65,27l-7.41,6.65-8.06,7.23-1.76,1.58-1.08,2-.81,1.91-1,2.14.3,2.08.23,3.2,1.62,3.6,2.12,2.9L38.5,72.6,80,35.35C79.81,35.21,79.65,35,79.47,34.87Z"/><path class="cls-1" d="M79.56,191.69l1.58-1.1-41.56-37.3-3.44,4-4.52,5.92-2.7,3.22-1.58,2.22-1.47,2.2-.61,1.8-.57,2.66.32,2.29.59,2.64.88,1.85,1.2,1.55.71.63L30.32,186l7.41,6.65,8.06,7.24,1.77,1.58,2.25,1,2.12.74,2.38.84,2.32-.27,3.57-.2,4-1.45,3.23-1.91L77.66,193A9.94,9.94,0,0,1,79.56,191.69Z"/><path class="cls-1" d="M226.66,171.17,225,167.58l-2.13-2.9-4.62-5.34a10.3,10.3,0,0,1-4.91-5.67l-1.12-1.29-41.56,37.3,4.42,3.09,6.6,4.06,3.59,2.41,2.47,1.42,2.45,1.33,2,.54,3,.52,2.55-.3,2.94-.52,2.06-.79,1.73-1.09.7-.62,1.94-1.74,7.4-6.65,8.07-7.24,1.76-1.58,1.07-2,.82-1.91.94-2.13-.3-2.08Z"/></svg>