<svg id="Layer_1" data-name="Layer 1" xmlns="http://www.w3.org/2000/svg" viewBox="0 0 262.32 262.32"><defs><style>.cls-1{fill:orange;}.cls-2{fill:#fff;}</style></defs><circle class="cls-1" cx="131.16" cy="131.16" r="131.16"/><polygon class="cls-2" points="204.64 131.62 92.09 204.64 92.09 58.6 204.64 131.62"/><path class="cls-2" d="M219.89,146l-11.18,7.25-26.94,17.48-32.49,21.08L121.19,210l-9.26,6a43.2,43.2,0,0,0-4.41,2.86,2,2,0,0,1-.19.12l2.26,1.3v-140a52.52,52.52,0,0,0,0-5.75,1.92,1.92,0,0,1,0-.24l-2.26,1.29,11.18,7.25,26.94,17.48,32.49,21.08L206,139.61l9.26,6c1.46.95,2.9,2,4.41,2.86l.19.12c1.62,1.06,3.13-1.54,1.51-2.59l-11.17-7.25-26.94-17.48-32.5-21.08L122.71,82l-9.26-6c-1.47-1-2.91-2-4.42-2.86l-.18-.12a1.51,1.51,0,0,0-2.26,1.3v128.1c0,5.89-.2,11.81,0,17.69v.25a1.51,1.51,0,0,0,2.26,1.29L120,214.37,147,196.9l32.49-21.08,28.09-18.23c4.56-3,9.19-5.81,13.68-8.87l.18-.12C223,147.56,221.51,145,219.89,146Z" transform="translate(-16 -15.68)"/></svg>