<svg id="Layer_1" data-name="Layer 1" xmlns="http://www.w3.org/2000/svg" viewBox="0 0 262.32 262.32"><defs><style>.cls-1{fill:orange;}.cls-2{fill:#fff;}</style></defs><circle class="cls-1" cx="131.16" cy="131.16" r="131.16"/><polygon class="cls-2" points="203 134.64 93.5 205.68 93.5 63.6 203 134.64"/><path class="cls-2" d="M225.48,133l-96,62.28L116,204.05l7.52,4.31V66.29L116,70.6l96,62.29,13.5,8.75c5.41,3.52,10.43-5.14,5-8.63l-96-62.28L121,62c-3.22-2.1-7.52.66-7.52,4.32V208.36c0,3.66,4.3,6.42,7.52,4.32l96-62.28,13.49-8.76C235.9,138.15,230.9,129.49,225.48,133Z" transform="translate(-25 -2.68)"/></svg>