<svg id="Layer_1" data-name="Layer 1" xmlns="http://www.w3.org/2000/svg" viewBox="0 0 2506.95 1252.13"><defs><style>.cls-1{opacity:0.39;}.cls-2{fill:#bdf9ff;}.cls-3{opacity:0.27;}.cls-4{opacity:0.24;}.cls-5{opacity:0.34;}.cls-6{opacity:0.41;}.cls-7{opacity:0.33;}.cls-8{opacity:0.12;}</style></defs><g class="cls-1"><path class="cls-2" d="M2329,372c59.66-102.15-133.06-390.71-344.5-478.5C1401.75-348.46,279.62,769.66,419,1035c61.91,117.85,372.7,67.49,440.5,56.5C1442.53,997,1602.19,438.39,2130,419,2207.23,416.16,2298.25,424.65,2329,372Z" transform="translate(166.95 140.54)"/></g><g class="cls-3"><path class="cls-2" d="M1024,192c0,53.57-190.28,97-425,97-119.46,0-221.25-35.38-425-97C-34.42,129-138.63,97.44-135.5,75.5-129.15,31.05,292.8,56.3,599,95,811.53,121.86,1024,148.57,1024,192Z" transform="translate(166.95 140.54)"/></g><g class="cls-4"><path class="cls-2" d="M1736,423.34c0,50.68-417.42-8.53-705.86,134.33C768.49,687.26,836.49,867.57,702.53,878.93c-177,15-550.45-278.25-378.25-455.59C457.22,286.44,847.76,289,1030.14,289,1420,289,1736,349.15,1736,423.34Z" transform="translate(166.95 140.54)"/></g><g class="cls-5"><path class="cls-2" d="M1677,544.5c183.7,250.26,422.57,300.79,407.5,355-15.78,56.78-295.2,63.92-579.5-17.5C981.55,732.1,472.73,290.37,552.5,108.5,628.85-65.57,1209.86-74.79,1505,207,1602.26,299.86,1559.29,384.15,1677,544.5Z" transform="translate(166.95 140.54)"/></g><g class="cls-6"><path class="cls-2" d="M2167.5,367.5c78.74,117.4-422.85,761.28-894,720-124.08-10.87-151.69-61-468-135.5C486.2,876.79,293.7,876.2,294,844c.4-43.62,243.42-64.6,511.5-108C1718.94,588.12,2104.7,273.87,2167.5,367.5Z" transform="translate(166.95 140.54)"/></g><g class="cls-7"><path class="cls-2" d="M462.5,689.5c-419.3,145.22-480.23,189-545,141-134.88-99.85-99.61-459,45-531,55.1-27.42,103.68-2,205,24.5,0,0,288.82,75.53,639,20.5,309.61-48.65,491.58-214.93,517-179,18.45,26.07-69.77,124.34-146,193C995.22,522.68,833.07,561.16,462.5,689.5Z" transform="translate(166.95 140.54)"/></g><g class="cls-8"><path class="cls-2" d="M1074,251c-12,34.17,162.1,178,379.5,178,116.56,0,142.3-61.12,379.5-178,265.36-130.76,365.22-129.28,363.5-166.5-4.34-93.71-642-197.79-743-11.5-24.63,45.41-6.17,81.3-41,127.5C1332.51,306.6,1087.33,212.92,1074,251Z" transform="translate(166.95 140.54)"/></g><path class="cls-2" d="M1177.5,875.5" transform="translate(166.95 140.54)"/><path class="cls-2" d="M540.5,61.5" transform="translate(166.95 140.54)"/></svg>