<svg id="Layer_1" data-name="Layer 1" xmlns="http://www.w3.org/2000/svg" viewBox="0 0 58.76 58.76"><defs><style>.cls-1{fill:#082e66;}</style></defs><path class="cls-1" d="M3,23.37,17.78,38.15,41.37,61.74l5.45,5.45c2.78,2.78,7.87,3,10.61,0a7.63,7.63,0,0,0,0-10.6L42.64,41.8,19.05,18.21,13.6,12.76c-2.77-2.77-7.86-3-10.6,0A7.63,7.63,0,0,0,3,23.37Z" transform="translate(-0.84 -10.6)"/><path class="cls-1" d="M46.82,12.76,32,27.55,8.45,51.14,3,56.59c-2.78,2.78-3,7.86,0,10.6a7.62,7.62,0,0,0,10.6,0L28.39,52.41,52,28.82l5.45-5.45c2.78-2.78,3-7.87,0-10.61a7.64,7.64,0,0,0-10.61,0Z" transform="translate(-0.84 -10.6)"/></svg>