<svg id="Layer_1" data-name="Layer 1" xmlns="http://www.w3.org/2000/svg" viewBox="0 0 233 202"><defs><style>.cls-1,.cls-3{fill:#fff;}.cls-1{stroke:#000;stroke-miterlimit:10;}.cls-2{fill:#7da7d9;}</style></defs><path class="cls-1" d="M83.5,89.5" transform="translate(-7 -42)"/><path class="cls-2" d="M221.07,215.32H22.76l12.5,12.5V59.12l-12.5,12.5H221.07l-12.5-12.5v168.7c0,16.08,25,16.11,25,0V59.12a12.68,12.68,0,0,0-12.5-12.5H22.76a12.68,12.68,0,0,0-12.5,12.5v168.7a12.69,12.69,0,0,0,12.5,12.5H221.07C237.16,240.32,237.18,215.32,221.07,215.32Z" transform="translate(-7 -42)"/><rect class="cls-3" x="76.09" width="78.05" height="33.74"/><rect class="cls-3" x="200.64" y="124.73" width="44.05" height="34.67" transform="translate(73.6 322.73) rotate(-90)"/><rect class="cls-3" x="76.29" y="168.26" width="78.05" height="33.74"/><rect class="cls-3" x="1.48" y="125.56" width="44.05" height="33" transform="translate(-125.56 123.56) rotate(-90)"/><path class="cls-1" d="M21.5,100.5" transform="translate(-7 -42)"/></svg>