<svg id="Layer_1" data-name="Layer 1" xmlns="http://www.w3.org/2000/svg" viewBox="0 0 273.53 184.52"><defs><style>.cls-1{fill:#f7f7f7;}.cls-2{font-size:14.39px;font-family:MyriadPro-Regular, Myriad Pro;}.cls-2,.cls-5,.cls-8{fill:#b3b3b3;}.cls-3{letter-spacing:-0.01em;}.cls-4{letter-spacing:-0.01em;}.cls-5,.cls-6,.cls-7{stroke:#000;}.cls-10,.cls-5,.cls-6,.cls-7,.cls-8,.cls-9{stroke-miterlimit:10;}.cls-6{font-size:10.8px;font-family:Candara-Light, Candara;font-weight:300;}.cls-10,.cls-6,.cls-7,.cls-9{fill:none;stroke-width:0.5px;}.cls-8{stroke:#b3b3b3;}.cls-9{stroke:#fff;}.cls-10{stroke:#e6e6e6;}</style></defs><rect class="cls-1" y="7.58" width="271.51" height="44.18" rx="12.39"/><text class="cls-2" transform="translate(140.67 34.2) scale(1.02 1)">Name <tspan class="cls-3" x="38.68" y="0">y</tspan><tspan x="45.32" y="0">our boa</tspan><tspan class="cls-4" x="91.94" y="0">rd</tspan><tspan x="104.48" y="0">.</tspan></text><line class="cls-5" x1="141.45" y1="20.74" x2="141.45" y2="38.57"/><text class="cls-6" transform="translate(31.82 33.6) scale(1.15 1)">SoundBit.</text><path class="cls-7" d="M120,105.6c5.27,10.54-13.39,29.06-41.68,41.37-24.95,10.85-56.67,11.94-60.77,3.19-3.29-7,11.45-20.07,18.61-26.4a90.94,90.94,0,0,1,23.08-15C81.68,99,115.19,95.92,120,105.6Z" transform="translate(-12.16 -99.47)"/><path class="cls-7" d="M21.15,130.91c-.78-9.62,2.86-23,11.62-25.72.37-.11,6.83-2,11.29.8.38.24,1.07.83,2.46,2,3.57,3,4.27,4,5.87,5.14a21.51,21.51,0,0,0,6.71,3.17c6.25,1.59,9.52-3.44,19.28-6.38a43.09,43.09,0,0,1,21.42-.78,34.91,34.91,0,0,1,13.68,6.19c2.81,2.15,8.67,6.62,10.33,14.43.23,1.08,2.36,11.92-5.52,18.85a21.53,21.53,0,0,1-10.88,4.72,26.79,26.79,0,0,1-11.62-.79c-1.52-.44-3.08-1-5.78-2.09-3-1.16-3.58-1.46-5.79-2.39a47.09,47.09,0,0,0-11.5-3.57c-1.41-.21-3.27-.3-7-.47a56.94,56.94,0,0,0-8.59-.05,37.16,37.16,0,0,0-8.43,2.09c-5.53,1.86-5.78,2.83-8.67,3.34a17.08,17.08,0,0,1-10.71-1.77C22.19,143.72,21.45,134.63,21.15,130.91Z" transform="translate(-12.16 -99.47)"/><path class="cls-7" d="M24.12,130.68c-.36-3.1-.94-13,5.8-19.49A13.74,13.74,0,0,1,37.54,107a12.25,12.25,0,0,1,6.74.86c1.9.87,2.46,1.81,5.44,4.44,1.94,1.71,3.62,3,4.76,3.84l3.7,2a8.83,8.83,0,0,0,3,.51,10.62,10.62,0,0,0,4.25-1.06,31,31,0,0,0,5.5-2.95,31.38,31.38,0,0,1,4.51-2.6c10.11-4.74,20.23-2.78,22.77-2.22h0a31.9,31.9,0,0,1,12.67,6c1.75,1.37,11.64,9.12,10.78,20.22a17.07,17.07,0,0,1-5.22,11.43c-3.88,3.59-8.6,4.35-10.88,4.72a26.72,26.72,0,0,1-10.43-.46c-.65-.16-1.19-.32-1.19-.32A52.78,52.78,0,0,1,88.25,149L85.53,148l-3.4-1.32a69.8,69.8,0,0,0-11.27-3.3A47.78,47.78,0,0,0,64,142.6a46.35,46.35,0,0,0-8.88.58,59.7,59.7,0,0,0-8.43,2.09c-5.75,1.73-6.42,2.48-8.74,2.38a12.85,12.85,0,0,1-7.16-2.92C25.24,140.49,24.47,133.79,24.12,130.68Z" transform="translate(-12.16 -99.47)"/><path class="cls-7" d="M27.27,130.28C27,127,26.63,120.82,30.41,115a12.8,12.8,0,0,1,5.25-5,11.81,11.81,0,0,1,7.54-.8c1.79.45,2.62,1.19,5.54,3.43,8.5,6.51,10.16,6.92,11.48,7,2,.12,3.69-.5,6.21-1.44a26.34,26.34,0,0,0,6.14-3.27c5.14-3.55,15.77-6.28,25.29-3.75a28.22,28.22,0,0,1,11.48,6.26c2,1.73,10.47,9.13,9.24,18.89a17.45,17.45,0,0,1-4.27,9.21,18.59,18.59,0,0,1-8.09,5.08,36.7,36.7,0,0,1-5.24.65,24.41,24.41,0,0,1-4-.05,23.07,23.07,0,0,1-3.69-.68c-.88-.32-1.58-.6-2-.8-1.42-.59-1.72-.81-3.07-1.34-.57-.21-.79-.28-1.36-.52-.91-.39-1.55-.73-1.72-.82-1.38-.72-4.39-2-5.92-2.62a43,43,0,0,0-8.43-2.22,44.94,44.94,0,0,0-6.86-.55,47.38,47.38,0,0,0-8.88.58,58.24,58.24,0,0,0-8.54,2.17c-4.52,1.43-5.3,2.1-7.45,2a11.76,11.76,0,0,1-6.45-2.36C28.07,140.77,27.64,135.15,27.27,130.28Z" transform="translate(-12.16 -99.47)"/><path class="cls-7" d="M29.48,130.12c-.29-3.36-.64-8.23,2-13.37,1.87-3.69,3.93-4.89,4.56-5.23a11,11,0,0,1,6.86-1.07c2.2.38,3.38,1.31,6.55,3.58,5.89,4.22,8.87,6.34,10.5,6.55,2.72.35,5.08-.69,9.79-2.78,4.48-2,4.88-2.92,7.76-4.25a28.21,28.21,0,0,1,20.42-.83,31.08,31.08,0,0,1,9.68,5.84c1.45,1.32,9.22,8.45,8.29,17.95a14,14,0,0,1-3,7.9,16.36,16.36,0,0,1-9.19,5.22c-.48.09-1.95.32-3.73.49-1,.08-1.69.13-2.3.15a15,15,0,0,1-3.31-.09,20.27,20.27,0,0,1-2.37-.77c-1.2-.43-1.85-.67-2.72-1.06s-1-.51-2.62-1.3c-.69-.34-1.2-.59-1.71-.82-3-1.35-4.49-2-5.47-2.41a44.19,44.19,0,0,0-8.09-2.25,39.6,39.6,0,0,0-7.68-1,39.3,39.3,0,0,0-8.2.84,43.42,43.42,0,0,0-8.76,2.12c-3.5,1.32-4.41,2.35-6.77,2.29A9.47,9.47,0,0,1,34.81,144C30.39,140.87,29.91,135.18,29.48,130.12Z" transform="translate(-12.16 -99.47)"/><path class="cls-7" d="M31,130.75c-.38-3.09-.88-7.54,1.22-12.46a10.66,10.66,0,0,1,4.21-5.51,10.13,10.13,0,0,1,6.51-1.35c.69.1,2,.38,6.26,3.35,2.17,1.5,3.89,2.85,5.09,3.83a12.44,12.44,0,0,0,6.38,2.87c4.36.52,6.28-2,13.33-5,4.47-2,12.86-5.49,20.33-3.12A24.49,24.49,0,0,1,97,114.37c2.34,1,6.77,2.87,10.07,6.43,1.42,1.54,5.54,6,5.56,12.58a14.7,14.7,0,0,1-3.53,10.09,14.09,14.09,0,0,1-6,4.09,25.76,25.76,0,0,1-4.88.94,23.06,23.06,0,0,1-3.29.21,17.6,17.6,0,0,1-2.32-.16,13,13,0,0,1-2.35-.46,15.74,15.74,0,0,1-2-.79c-.83-.38-1.17-.61-2.07-1.1-.51-.28-1.25-.64-2.74-1.36-2.18-1.06-3.29-1.56-4.11-1.89-1.1-.45-2-.76-3.13-1.14-.94-.33-1.55-.54-2.37-.77-1.36-.4-2.42-.61-3-.73a42,42,0,0,0-6.34-.82,40.5,40.5,0,0,0-9.45.73,36.87,36.87,0,0,0-8.41,2.4c-2.42,1-3.63,1.94-5.8,1.92a8.91,8.91,0,0,1-4.39-1.26C32.22,140.87,31.55,135.53,31,130.75Z" transform="translate(-12.16 -99.47)"/><path class="cls-7" d="M32.58,130.08a19.14,19.14,0,0,1,.06-7.07c.45-2,1.44-6.54,5.54-8.8A9,9,0,0,1,43.27,113c1.81.15,3.43,1.21,6.6,3.32,2.57,1.72,2.85,2.17,5.08,3.53a36.11,36.11,0,0,0,4.37,2.32c4.43,1.7,8.37-2.37,16-5,3-1,11.94-4.07,20.35-.73a21.07,21.07,0,0,1,8.57,6.35,16.21,16.21,0,0,1,4,10.25,13.29,13.29,0,0,1-2.34,7.66,15,15,0,0,1-3.62,3.54,12.31,12.31,0,0,1-4.06,2.06,18.8,18.8,0,0,1-2.88.49,20.11,20.11,0,0,1-3.22.21,13.91,13.91,0,0,1-2-.17,10.06,10.06,0,0,1-2-.47l-.67-.26-1.33-.51a26.87,26.87,0,0,1-2.69-1.33,42.84,42.84,0,0,0-4-1.84l-2.66-1-2.67-1c-1.41-.52-2.58-.89-3-1a23.68,23.68,0,0,0-6.53-.77,38.78,38.78,0,0,0-9.35.61,46,46,0,0,0-7.92,2.31,8.54,8.54,0,0,1-10.22-.26C33.61,138.66,33.09,134.33,32.58,130.08Z" transform="translate(-12.16 -99.47)"/><path class="cls-7" d="M34.48,129.86a17.67,17.67,0,0,1,.45-5.7,11.39,11.39,0,0,1,3.79-6.72,7.55,7.55,0,0,1,4.15-1.81,2,2,0,0,1,.31,0,12.67,12.67,0,0,1,5.74,1.64c3.14,1.73,3.26,2.48,6.09,4.1a20.27,20.27,0,0,0,4.36,2c4.57,1.23,7.15-2.41,15.31-5.12,2.17-.72,7.92-2.57,13.91-1.74A21.16,21.16,0,0,1,96,118.92a18.09,18.09,0,0,1,6.38,5.93,15.21,15.21,0,0,1,2.88,7.6,9.83,9.83,0,0,1-.9,5.55,11.53,11.53,0,0,1-2.72,3.35,12.39,12.39,0,0,1-2.83,1.92,14.85,14.85,0,0,1-3.22,1.07,24.2,24.2,0,0,1-2.93.48,20.58,20.58,0,0,1-3.29.22,12.56,12.56,0,0,1-1.66-.18,14,14,0,0,1-1.68-.47c-.64-.21-1.12-.4-1.36-.49-1-.42-1.6-.72-2.74-1.27-.92-.44-.56-.24-2.73-1.26-2-.93-2.07-1-2.74-1.26-.44-.19-1-.41-2.71-1s-2.87-1-3.72-1.2a23.45,23.45,0,0,0-6.65-.72,32.56,32.56,0,0,0-9.15,1.17c-3.32.93-3.79,1.66-8.47,2.94-2.64.72-4.1.93-5.59.36A6.82,6.82,0,0,1,37,138.81,15.8,15.8,0,0,1,34.48,129.86Z" transform="translate(-12.16 -99.47)"/><path class="cls-7" d="M35.71,131.19a18.48,18.48,0,0,1,1.37-8.1,7.51,7.51,0,0,1,3.2-3.92,9.66,9.66,0,0,1,3.87-1.32,10,10,0,0,1,3.82.66c2.28.77,3.27,1.65,5.39,2.9A37.48,37.48,0,0,0,58.73,124a12.73,12.73,0,0,0,3.31.2,13.86,13.86,0,0,0,2.29-.38,24.73,24.73,0,0,0,6.8-3.3,27.6,27.6,0,0,1,9.15-2.45,31.61,31.61,0,0,1,9.54.81,14.38,14.38,0,0,1,1.72.54,19.29,19.29,0,0,1,3.76,2,16.25,16.25,0,0,1,5.33,5,10,10,0,0,1,.75,10.1,10,10,0,0,1-1.77,2.78,11.79,11.79,0,0,1-2.49,2,9.94,9.94,0,0,1-2.55,1.23A14.63,14.63,0,0,1,92,143a17.12,17.12,0,0,1-3,.19,11.64,11.64,0,0,1-1.66-.15,12.52,12.52,0,0,1-1.69-.43c-.87-.27-1.26-.46-2.38-.91-1.34-.54-1.19-.43-2.38-.91-1.61-.65-1.58-.72-2.73-1.16s-1.88-.64-2.71-.89c-1.1-.33-2-.55-2.36-.65-.88-.22-2.33-.59-4-.91a31.56,31.56,0,0,0-5.3-.75,24.23,24.23,0,0,0-5.26.48,58,58,0,0,0-8.86,2.21c-1.05.35-1.88.61-3.22,1a8.78,8.78,0,0,1-4.93.32,6.5,6.5,0,0,1-3-2A11.72,11.72,0,0,1,35.71,131.19Z" transform="translate(-12.16 -99.47)"/><line class="cls-8" x1="126.92" y1="13.3" x2="127.03" y2="43.49"/><rect class="cls-1" x="1.02" y="72.32" width="271.51" height="44.18" rx="12.39"/><text class="cls-2" transform="translate(142.69 98.94) scale(1.02 1)">Name <tspan class="cls-3" x="38.68" y="0">y</tspan><tspan x="45.32" y="0">our boa</tspan><tspan class="cls-4" x="91.94" y="0">rd</tspan><tspan x="104.48" y="0">.</tspan></text><line class="cls-5" x1="143.47" y1="85.47" x2="143.47" y2="103.31"/><text class="cls-6" transform="translate(33.84 98.33) scale(1.15 1)">SoundBit.</text><path class="cls-9" d="M122.05,170.34c5.27,10.54-13.39,29.06-41.68,41.36-25,10.85-56.67,11.94-60.77,3.2-3.29-7,11.45-20.07,18.6-26.41a90.93,90.93,0,0,1,23.09-15C83.7,163.76,117.21,160.66,122.05,170.34Z" transform="translate(-12.16 -99.47)"/><path class="cls-9" d="M23.17,195.65c-.78-9.62,2.85-23,11.62-25.72.37-.12,6.83-2,11.29.8.38.24,1.07.83,2.46,2,3.57,3,4.27,4,5.87,5.14A21.51,21.51,0,0,0,61.12,181c6.25,1.59,9.52-3.44,19.28-6.38a43.09,43.09,0,0,1,21.42-.78,34.76,34.76,0,0,1,13.68,6.19c2.81,2.15,8.66,6.62,10.33,14.43.23,1.08,2.36,11.92-5.52,18.85a21.39,21.39,0,0,1-10.88,4.71,26.84,26.84,0,0,1-11.62-.78c-1.52-.44-3.08-1-5.78-2.09-3-1.16-3.58-1.47-5.79-2.39a47.09,47.09,0,0,0-11.5-3.57c-1.41-.22-3.27-.3-7-.47a56.94,56.94,0,0,0-8.59,0,37,37,0,0,0-8.43,2.09c-5.53,1.86-5.78,2.82-8.67,3.34a17.15,17.15,0,0,1-10.71-1.77C24.21,208.45,23.47,199.37,23.17,195.65Z" transform="translate(-12.16 -99.47)"/><path class="cls-9" d="M26.13,195.41c-.35-3.1-.94-13,5.81-19.48a13.74,13.74,0,0,1,7.62-4.19,12.26,12.26,0,0,1,6.74.86c1.9.86,2.46,1.81,5.44,4.44,1.94,1.71,3.62,3,4.76,3.84l3.7,2a9.05,9.05,0,0,0,3,.52,10.62,10.62,0,0,0,4.25-1.06,30.63,30.63,0,0,0,5.49-3,30.57,30.57,0,0,1,4.52-2.61c10.1-4.73,20.23-2.78,22.77-2.21h0a31.9,31.9,0,0,1,12.67,6c1.75,1.37,11.64,9.12,10.78,20.21a17.07,17.07,0,0,1-5.22,11.44c-3.88,3.59-8.6,4.35-10.88,4.72a26.91,26.91,0,0,1-10.43-.46c-.65-.16-1.19-.32-1.19-.32a52.78,52.78,0,0,1-5.68-2.37l-2.72-1.06-3.4-1.32a69.8,69.8,0,0,0-11.27-3.3,45.82,45.82,0,0,0-15.75-.18,61.61,61.61,0,0,0-8.44,2.1c-5.74,1.72-6.41,2.48-8.73,2.38a12.78,12.78,0,0,1-7.16-2.93C27.25,205.23,26.49,198.52,26.13,195.41Z" transform="translate(-12.16 -99.47)"/><path class="cls-9" d="M29.29,195c-.25-3.25-.64-9.45,3.14-15.3a12.8,12.8,0,0,1,5.25-5,11.81,11.81,0,0,1,7.54-.8c1.79.44,2.62,1.18,5.54,3.43,8.5,6.51,10.16,6.92,11.48,7,2,.13,3.68-.49,6.21-1.43a26.57,26.57,0,0,0,6.14-3.27c5.14-3.56,15.76-6.29,25.29-3.75a28.1,28.1,0,0,1,11.48,6.26c2,1.73,10.47,9.12,9.24,18.89a17.5,17.5,0,0,1-4.27,9.21,18.71,18.71,0,0,1-8.1,5.08A36.42,36.42,0,0,1,103,216a25.6,25.6,0,0,1-4-.05,21.86,21.86,0,0,1-3.69-.69c-.88-.31-1.58-.59-2-.79-1.42-.59-1.72-.82-3.07-1.34-.57-.22-.79-.28-1.36-.53-.91-.38-1.55-.72-1.72-.81-1.38-.73-4.39-2-5.92-2.62A42.48,42.48,0,0,0,72.8,207a44.94,44.94,0,0,0-6.86-.55,48,48,0,0,0-8.88.57,59.41,59.41,0,0,0-8.54,2.18c-4.52,1.42-5.3,2.1-7.45,2a11.78,11.78,0,0,1-6.45-2.35C30.09,205.51,29.66,199.89,29.29,195Z" transform="translate(-12.16 -99.47)"/><path class="cls-9" d="M31.5,194.86c-.29-3.36-.64-8.23,2-13.38,1.87-3.68,3.93-4.88,4.56-5.23a11,11,0,0,1,6.86-1.06c2.2.38,3.38,1.31,6.55,3.58,5.89,4.22,8.87,6.33,10.5,6.55,2.72.35,5.08-.69,9.79-2.78,4.48-2,4.88-2.92,7.76-4.25a28.18,28.18,0,0,1,20.41-.83,31,31,0,0,1,9.69,5.84c1.45,1.32,9.21,8.45,8.29,17.95a13.91,13.91,0,0,1-3,7.9,16.38,16.38,0,0,1-9.18,5.22c-.48.09-2,.32-3.73.48-1,.09-1.69.13-2.3.15a13.89,13.89,0,0,1-3.31-.09,18.42,18.42,0,0,1-2.37-.77c-1.2-.43-1.85-.66-2.73-1s-1-.51-2.61-1.31c-.69-.34-1.2-.58-1.71-.81-3-1.35-4.49-2-5.47-2.42a43.94,43.94,0,0,0-8.1-2.24,39.4,39.4,0,0,0-7.67-1,39.3,39.3,0,0,0-8.2.84,44,44,0,0,0-8.76,2.11c-3.5,1.33-4.41,2.36-6.77,2.29a9.4,9.4,0,0,1-5.09-1.82C32.41,205.61,31.93,199.92,31.5,194.86Z" transform="translate(-12.16 -99.47)"/><path class="cls-9" d="M33,195.49c-.38-3.1-.88-7.54,1.22-12.46a10.72,10.72,0,0,1,4.21-5.52,10.26,10.26,0,0,1,6.51-1.35c.68.11,2,.39,6.26,3.36,2.17,1.5,3.89,2.84,5.09,3.83a12.52,12.52,0,0,0,6.38,2.87c4.35.51,6.28-2,13.33-5.05,4.46-1.95,12.86-5.5,20.33-3.12A25.32,25.32,0,0,1,99,179.11c2.34,1,6.77,2.87,10.07,6.43,1.42,1.54,5.54,6,5.56,12.58a14.7,14.7,0,0,1-3.53,10.09,14.09,14.09,0,0,1-6,4.09,25.77,25.77,0,0,1-4.88.93,23.17,23.17,0,0,1-3.29.22,22.22,22.22,0,0,1-2.32-.16,13.91,13.91,0,0,1-2.35-.46,17.38,17.38,0,0,1-2-.79c-.83-.38-1.17-.61-2.07-1.1-.51-.28-1.25-.64-2.74-1.36-2.18-1.06-3.29-1.56-4.11-1.89-1.1-.45-2-.76-3.13-1.15-.94-.32-1.55-.53-2.37-.77-1.36-.39-2.42-.6-3-.72A38.65,38.65,0,0,0,57,205a36.87,36.87,0,0,0-8.41,2.4c-2.42,1-3.63,1.93-5.8,1.92A8.91,8.91,0,0,1,38.38,208C34.24,205.6,33.57,200.27,33,195.49Z" transform="translate(-12.16 -99.47)"/><path class="cls-9" d="M34.6,194.82a19.19,19.19,0,0,1,.06-7.08c.45-2,1.44-6.53,5.54-8.8a9,9,0,0,1,5.09-1.23c1.8.15,3.43,1.21,6.6,3.32,2.57,1.71,2.85,2.17,5.08,3.53a36,36,0,0,0,4.37,2.31c4.43,1.7,8.37-2.36,16-4.94,3-1,11.94-4.07,20.35-.73a21.07,21.07,0,0,1,8.57,6.35,16.21,16.21,0,0,1,4,10.25,13.31,13.31,0,0,1-2.34,7.66A14.94,14.94,0,0,1,104.3,209a12.3,12.3,0,0,1-4.06,2.07,20.14,20.14,0,0,1-2.88.49,20.11,20.11,0,0,1-3.22.21,18.06,18.06,0,0,1-2-.17,10.18,10.18,0,0,1-2-.48l-.67-.25-1.33-.52A24.8,24.8,0,0,1,85.52,209a42.84,42.84,0,0,0-4-1.84c-.52-.22-.22-.08-2.66-1-1.72-.66-2-.78-2.67-1-1.41-.51-2.58-.88-3-1a24.07,24.07,0,0,0-6.53-.78,39.83,39.83,0,0,0-9.35.61,46.55,46.55,0,0,0-7.92,2.32A8.59,8.59,0,0,1,39.14,206C35.63,203.4,35.11,199.07,34.6,194.82Z" transform="translate(-12.16 -99.47)"/><path class="cls-9" d="M36.5,194.59a17.7,17.7,0,0,1,.45-5.7,11.36,11.36,0,0,1,3.79-6.72,7.66,7.66,0,0,1,4.15-1.81h.31A12.88,12.88,0,0,1,50.94,182c3.14,1.74,3.26,2.49,6.09,4.11a19.82,19.82,0,0,0,4.36,2c4.57,1.23,7.15-2.4,15.31-5.11,2.17-.72,7.92-2.57,13.91-1.74a21.36,21.36,0,0,1,7.44,2.4,18.18,18.18,0,0,1,6.38,5.94,15.21,15.21,0,0,1,2.88,7.6,9.79,9.79,0,0,1-.9,5.54,11.61,11.61,0,0,1-2.72,3.36,12.44,12.44,0,0,1-2.83,1.91,14.42,14.42,0,0,1-3.22,1.08,24.2,24.2,0,0,1-2.93.48,18.75,18.75,0,0,1-3.29.21,9.69,9.69,0,0,1-1.66-.18,13.42,13.42,0,0,1-1.68-.46c-.64-.21-1.12-.4-1.36-.49-1-.42-1.6-.72-2.74-1.27-.92-.44-.56-.25-2.73-1.26-2-.94-2.07-1-2.74-1.27-.44-.18-1-.41-2.71-1s-2.87-1-3.72-1.2a24.21,24.21,0,0,0-6.65-.72,33.17,33.17,0,0,0-9.16,1.18c-3.31.92-3.78,1.66-8.46,2.94-2.64.72-4.1.92-5.59.36A6.88,6.88,0,0,1,39,203.55,15.81,15.81,0,0,1,36.5,194.59Z" transform="translate(-12.16 -99.47)"/><path class="cls-9" d="M37.73,195.93a18.48,18.48,0,0,1,1.37-8.1A7.85,7.85,0,0,1,41,184.94a8,8,0,0,1,1.34-1,9.61,9.61,0,0,1,3.87-1.32,10,10,0,0,1,3.82.66c2.28.77,3.27,1.65,5.39,2.9a37,37,0,0,0,5.37,2.59,12.73,12.73,0,0,0,3.31.2,13.86,13.86,0,0,0,2.29-.38,25,25,0,0,0,6.8-3.3,27.36,27.36,0,0,1,9.14-2.45,31.85,31.85,0,0,1,9.55.8c.32.09.94.25,1.72.54a19.29,19.29,0,0,1,3.76,2,16.39,16.39,0,0,1,5.33,5,10,10,0,0,1,.75,10.09,9.83,9.83,0,0,1-1.77,2.79,12.8,12.8,0,0,1-2.49,2,9.94,9.94,0,0,1-2.55,1.23,16.76,16.76,0,0,1-2.61.44,17.12,17.12,0,0,1-3,.19,13.16,13.16,0,0,1-1.67-.16,10.86,10.86,0,0,1-1.68-.42c-.87-.28-1.26-.46-2.38-.91-1.35-.54-1.2-.44-2.38-.92-1.61-.64-1.58-.72-2.73-1.15s-1.88-.64-2.71-.89c-1.1-.33-2-.55-2.36-.65-.88-.22-2.33-.59-4-.92a33.71,33.71,0,0,0-5.31-.75,24.83,24.83,0,0,0-5.25.48,58.14,58.14,0,0,0-8.87,2.22c-1,.35-1.87.61-3.21,1a8.79,8.79,0,0,1-4.93.33,6.5,6.5,0,0,1-3-2A11.68,11.68,0,0,1,37.73,195.93Z" transform="translate(-12.16 -99.47)"/><line class="cls-8" x1="128.94" y1="78.04" x2="129.05" y2="108.23"/><rect class="cls-1" x="2.02" y="133.32" width="271.51" height="44.18" rx="12.39"/><text class="cls-2" transform="translate(142.69 161.94) scale(1.02 1)">Name <tspan class="cls-3" x="38.68" y="0">y</tspan><tspan x="45.32" y="0">our boa</tspan><tspan class="cls-4" x="91.94" y="0">rd</tspan><tspan x="104.48" y="0">.</tspan></text><line class="cls-5" x1="143.47" y1="148.47" x2="143.47" y2="166.31"/><text class="cls-6" transform="translate(33.84 161.33) scale(1.15 1)">SoundBit.</text><path class="cls-10" d="M122.05,233.34c5.27,10.54-13.39,29.06-41.68,41.36-25,10.85-56.67,11.94-60.77,3.2-3.29-7,11.45-20.07,18.6-26.41a90.93,90.93,0,0,1,23.09-15C83.7,226.76,117.21,223.66,122.05,233.34Z" transform="translate(-12.16 -99.47)"/><path class="cls-10" d="M23.17,258.65c-.78-9.62,2.85-23,11.62-25.72.37-.12,6.83-2,11.29.8.38.24,1.07.83,2.46,2,3.57,3,4.27,4,5.87,5.14A21.51,21.51,0,0,0,61.12,244c6.25,1.59,9.52-3.44,19.28-6.38a43.09,43.09,0,0,1,21.42-.78,34.76,34.76,0,0,1,13.68,6.19c2.81,2.15,8.66,6.62,10.33,14.43.23,1.08,2.36,11.92-5.52,18.85a21.39,21.39,0,0,1-10.88,4.71,26.84,26.84,0,0,1-11.62-.78c-1.52-.44-3.08-1-5.78-2.09-3-1.16-3.58-1.47-5.79-2.39a47.09,47.09,0,0,0-11.5-3.57c-1.41-.22-3.27-.3-7-.47a56.94,56.94,0,0,0-8.59-.05,37,37,0,0,0-8.43,2.09c-5.53,1.86-5.78,2.82-8.67,3.34a17.15,17.15,0,0,1-10.71-1.77C24.21,271.45,23.47,262.37,23.17,258.65Z" transform="translate(-12.16 -99.47)"/><path class="cls-10" d="M26.13,258.41c-.35-3.1-.94-13,5.81-19.48a13.74,13.74,0,0,1,7.62-4.19,12.26,12.26,0,0,1,6.74.86c1.9.86,2.46,1.81,5.44,4.44,1.94,1.71,3.62,3,4.76,3.84l3.7,2a9.05,9.05,0,0,0,3,.52,10.62,10.62,0,0,0,4.25-1.06,30.63,30.63,0,0,0,5.49-3,30.57,30.57,0,0,1,4.52-2.61c10.1-4.73,20.23-2.78,22.77-2.21h0a31.9,31.9,0,0,1,12.67,6c1.75,1.37,11.64,9.12,10.78,20.21a17.07,17.07,0,0,1-5.22,11.44c-3.88,3.59-8.6,4.35-10.88,4.72a26.91,26.91,0,0,1-10.43-.46c-.65-.16-1.19-.32-1.19-.32a52.78,52.78,0,0,1-5.68-2.37l-2.72-1.06-3.4-1.32a69.8,69.8,0,0,0-11.27-3.3,45.82,45.82,0,0,0-15.75-.18,61.61,61.61,0,0,0-8.44,2.1c-5.74,1.72-6.41,2.48-8.73,2.38a12.78,12.78,0,0,1-7.16-2.93C27.25,268.23,26.49,261.52,26.13,258.41Z" transform="translate(-12.16 -99.47)"/><path class="cls-10" d="M29.29,258c-.25-3.25-.64-9.45,3.14-15.3a12.8,12.8,0,0,1,5.25-5,11.81,11.81,0,0,1,7.54-.8c1.79.44,2.62,1.18,5.54,3.43,8.5,6.51,10.16,6.92,11.48,7,2,.13,3.68-.49,6.21-1.43a26.57,26.57,0,0,0,6.14-3.27c5.14-3.56,15.76-6.29,25.29-3.75a28.1,28.1,0,0,1,11.48,6.26c2,1.73,10.47,9.12,9.24,18.89a17.5,17.5,0,0,1-4.27,9.21,18.71,18.71,0,0,1-8.1,5.08A36.42,36.42,0,0,1,103,279a25.6,25.6,0,0,1-4,0,21.86,21.86,0,0,1-3.69-.69c-.88-.31-1.58-.59-2-.79-1.42-.59-1.72-.82-3.07-1.34-.57-.22-.79-.28-1.36-.53-.91-.38-1.55-.72-1.72-.81-1.38-.73-4.39-2-5.92-2.62A42.48,42.48,0,0,0,72.8,270a44.94,44.94,0,0,0-6.86-.55,48,48,0,0,0-8.88.57,59.41,59.41,0,0,0-8.54,2.18c-4.52,1.42-5.3,2.1-7.45,2a11.78,11.78,0,0,1-6.45-2.35C30.09,268.51,29.66,262.89,29.29,258Z" transform="translate(-12.16 -99.47)"/><path class="cls-10" d="M31.5,257.86c-.29-3.36-.64-8.23,2-13.38,1.87-3.68,3.93-4.88,4.56-5.23a11,11,0,0,1,6.86-1.06c2.2.38,3.38,1.31,6.55,3.58,5.89,4.22,8.87,6.33,10.5,6.55,2.72.35,5.08-.69,9.79-2.78,4.48-2,4.88-2.92,7.76-4.25a28.18,28.18,0,0,1,20.41-.83,31,31,0,0,1,9.69,5.84c1.45,1.32,9.21,8.45,8.29,17.95a13.91,13.91,0,0,1-3,7.9,16.38,16.38,0,0,1-9.18,5.22c-.48.09-2,.32-3.73.48-1,.09-1.69.13-2.3.15a13.89,13.89,0,0,1-3.31-.09,18.42,18.42,0,0,1-2.37-.77c-1.2-.43-1.85-.66-2.73-1.05s-1-.51-2.61-1.31c-.69-.34-1.2-.58-1.71-.81-3-1.35-4.49-2-5.47-2.42a43.94,43.94,0,0,0-8.1-2.24,39.4,39.4,0,0,0-7.67-1,39.3,39.3,0,0,0-8.2.84,44,44,0,0,0-8.76,2.11c-3.5,1.33-4.41,2.36-6.77,2.29a9.4,9.4,0,0,1-5.09-1.82C32.41,268.61,31.93,262.92,31.5,257.86Z" transform="translate(-12.16 -99.47)"/><path class="cls-10" d="M33,258.49c-.38-3.1-.88-7.54,1.22-12.46a10.72,10.72,0,0,1,4.21-5.52,10.26,10.26,0,0,1,6.51-1.35c.68.11,2,.39,6.26,3.36,2.17,1.5,3.89,2.84,5.09,3.83a12.52,12.52,0,0,0,6.38,2.87c4.35.51,6.28-2,13.33-5.05,4.46-1.95,12.86-5.5,20.33-3.12A25.32,25.32,0,0,1,99,242.11c2.34,1,6.77,2.87,10.07,6.43,1.42,1.54,5.54,6,5.56,12.58a14.7,14.7,0,0,1-3.53,10.09,14.09,14.09,0,0,1-6,4.09,25.77,25.77,0,0,1-4.88.93,23.17,23.17,0,0,1-3.29.22,22.22,22.22,0,0,1-2.32-.16,13.91,13.91,0,0,1-2.35-.46,17.38,17.38,0,0,1-2-.79c-.83-.38-1.17-.61-2.07-1.1-.51-.28-1.25-.64-2.74-1.36-2.18-1.06-3.29-1.56-4.11-1.89-1.1-.45-2-.76-3.13-1.15-.94-.32-1.55-.53-2.37-.77-1.36-.39-2.42-.6-3-.72A38.65,38.65,0,0,0,57,268a36.87,36.87,0,0,0-8.41,2.4c-2.42,1.05-3.63,1.93-5.8,1.92A8.91,8.91,0,0,1,38.38,271C34.24,268.6,33.57,263.27,33,258.49Z" transform="translate(-12.16 -99.47)"/><path class="cls-10" d="M34.6,257.82a19.19,19.19,0,0,1,.06-7.08c.45-2,1.44-6.53,5.54-8.8a9,9,0,0,1,5.09-1.23c1.8.15,3.43,1.21,6.6,3.32,2.57,1.71,2.85,2.17,5.08,3.53a36,36,0,0,0,4.37,2.31c4.43,1.7,8.37-2.36,16-4.94,3-1,11.94-4.07,20.35-.73a21.07,21.07,0,0,1,8.57,6.35,16.21,16.21,0,0,1,4,10.25,13.31,13.31,0,0,1-2.34,7.66A14.94,14.94,0,0,1,104.3,272a12.3,12.3,0,0,1-4.06,2.07,20.14,20.14,0,0,1-2.88.49,20.11,20.11,0,0,1-3.22.21,18.06,18.06,0,0,1-2-.17,10.18,10.18,0,0,1-2-.48l-.67-.25-1.33-.52A24.8,24.8,0,0,1,85.52,272a42.84,42.84,0,0,0-4-1.84c-.52-.22-.22-.08-2.66-1-1.72-.66-2-.78-2.67-1-1.41-.51-2.58-.88-3-1a24.07,24.07,0,0,0-6.53-.78,39.83,39.83,0,0,0-9.35.61,46.55,46.55,0,0,0-7.92,2.32A8.59,8.59,0,0,1,39.14,269C35.63,266.4,35.11,262.07,34.6,257.82Z" transform="translate(-12.16 -99.47)"/><path class="cls-10" d="M36.5,257.59a17.7,17.7,0,0,1,.45-5.7,11.36,11.36,0,0,1,3.79-6.72,7.66,7.66,0,0,1,4.15-1.81h.31A12.88,12.88,0,0,1,50.94,245c3.14,1.74,3.26,2.49,6.09,4.11a19.82,19.82,0,0,0,4.36,2c4.57,1.23,7.15-2.4,15.31-5.11,2.17-.72,7.92-2.57,13.91-1.74a21.36,21.36,0,0,1,7.44,2.4,18.18,18.18,0,0,1,6.38,5.94,15.21,15.21,0,0,1,2.88,7.6,9.79,9.79,0,0,1-.9,5.54,11.61,11.61,0,0,1-2.72,3.36,12.44,12.44,0,0,1-2.83,1.91,14.42,14.42,0,0,1-3.22,1.08,24.2,24.2,0,0,1-2.93.48,18.75,18.75,0,0,1-3.29.21,9.69,9.69,0,0,1-1.66-.18,13.42,13.42,0,0,1-1.68-.46c-.64-.21-1.12-.4-1.36-.49-1-.42-1.6-.72-2.74-1.27-.92-.44-.56-.25-2.73-1.26-2-.94-2.07-1-2.74-1.27-.44-.18-1-.41-2.71-1s-2.87-1-3.72-1.2a24.21,24.21,0,0,0-6.65-.72,33.17,33.17,0,0,0-9.16,1.18c-3.31.92-3.78,1.66-8.46,2.94-2.64.72-4.1.92-5.59.36A6.88,6.88,0,0,1,39,266.55,15.81,15.81,0,0,1,36.5,257.59Z" transform="translate(-12.16 -99.47)"/><path class="cls-10" d="M37.73,258.93a18.48,18.48,0,0,1,1.37-8.1A7.85,7.85,0,0,1,41,247.94a8,8,0,0,1,1.34-1,9.61,9.61,0,0,1,3.87-1.32,10,10,0,0,1,3.82.66c2.28.77,3.27,1.65,5.39,2.9a37,37,0,0,0,5.37,2.59,12.73,12.73,0,0,0,3.31.2,13.86,13.86,0,0,0,2.29-.38,25,25,0,0,0,6.8-3.3,27.36,27.36,0,0,1,9.14-2.45,31.85,31.85,0,0,1,9.55.8c.32.09.94.25,1.72.54a19.29,19.29,0,0,1,3.76,2,16.39,16.39,0,0,1,5.33,5,10,10,0,0,1,.75,10.09,9.83,9.83,0,0,1-1.77,2.79,12.8,12.8,0,0,1-2.49,2,9.94,9.94,0,0,1-2.55,1.23,16.76,16.76,0,0,1-2.61.44,17.12,17.12,0,0,1-3,.19,13.16,13.16,0,0,1-1.67-.16,10.86,10.86,0,0,1-1.68-.42c-.87-.28-1.26-.46-2.38-.91-1.35-.54-1.2-.44-2.38-.92-1.61-.64-1.58-.72-2.73-1.15s-1.88-.64-2.71-.89c-1.1-.33-2-.55-2.36-.65-.88-.22-2.33-.59-4-.92a33.71,33.71,0,0,0-5.31-.75,24.83,24.83,0,0,0-5.25.48,58.14,58.14,0,0,0-8.87,2.22c-1,.35-1.87.61-3.21,1a8.79,8.79,0,0,1-4.93.33,6.5,6.5,0,0,1-3-2A11.68,11.68,0,0,1,37.73,258.93Z" transform="translate(-12.16 -99.47)"/><line class="cls-8" x1="128.94" y1="141.04" x2="129.05" y2="171.23"/></svg>