<svg id="Layer_1" data-name="Layer 1" xmlns="http://www.w3.org/2000/svg" viewBox="0 0 1341.08 1245.45"><defs><style>.cls-1{fill:#7da7d9;}.cls-2{fill:#8493ca;}.cls-3{fill:#8781bd;}.cls-4{fill:#bd8dbf;}.cls-5{fill:#f4989d;}.cls-6{fill:#a286c0;}.cls-7{fill:#082e66;}.cls-8{fill:#f9e6aa;}.cls-9{fill:#dac2ff;}.cls-10{fill:#efd9ff;}.cls-11{fill:#8b8bc6;}.cls-12{fill:#9696d6;}.cls-13{fill:#9f9fdd;}.cls-14{fill:#a8a8e5;}.cls-15{fill:#cbb9ef;}.cls-16{fill:#908dcc;}.cls-17{fill:#e3d4ff;}.cls-18{fill:#eedcff;}.cls-19{fill:#8c89c6;}.cls-20{fill:#9f9fe2;}.cls-21{fill:#9696e0;}.cls-22{fill:#b8b8ff;}.cls-23{fill:#a5a2ea;}.cls-24{fill:#d1b8f4;}.cls-25{fill:#eed0ff;}.cls-26{font-size:135.91px;font-family:Candara-Light, Candara;font-weight:300;}.cls-26,.cls-27{stroke:#000;stroke-miterlimit:10;stroke-width:3px;}.cls-27{fill:none;}</style></defs><rect class="cls-1" x="634.89" y="1204.59" width="33.55" height="40.56" rx="12"/><rect class="cls-2" x="670.59" y="1204.59" width="33.55" height="40.56" rx="12"/><rect class="cls-3" x="706.29" y="1204.59" width="33.55" height="40.56" rx="12"/><rect class="cls-4" x="777.07" y="1204.59" width="33.55" height="40.56" rx="12"/><rect class="cls-5" x="812" y="1204.59" width="33.55" height="40.56" rx="12"/><rect class="cls-6" x="742.14" y="1204.59" width="33.55" height="40.56" rx="12"/><rect class="cls-7" x="599.39" y="1204.88" width="33.55" height="40.56" rx="12"/><rect class="cls-8" x="847.03" y="1204.88" width="33.55" height="40.56" rx="12"/><path class="cls-5" d="M743.62,1316.09" transform="translate(83.43 -2)"/><polygon class="cls-9" points="486.56 0 406.43 37.68 423.75 0 486.56 0"/><polygon class="cls-10" points="187.43 220 406.43 195 296.93 8.57 187.43 220"/><polygon class="cls-11" points="187.43 220 146.43 361 406.43 195 187.43 220"/><polygon class="cls-3" points="406.43 37.68 406.43 195 296.93 8.57 296.93 0 423.75 0 406.43 37.68"/><polygon class="cls-12" points="607.43 126.53 606.98 0 486.56 0 406.43 37.68 607.43 126.53"/><polygon class="cls-10" points="406.43 195 607.43 126.53 406.43 37.68 406.43 195"/><polygon class="cls-13" points="742.39 97.5 607.43 126.53 406.43 195 557.43 300 742.39 97.5"/><polygon class="cls-9" points="684.43 87 742.39 97.5 607.43 126.53 684.43 87"/><polygon class="cls-14" points="633.63 0 684.43 87 607.43 126.53 606.98 0 633.63 0"/><polygon class="cls-15" points="889.43 68 861.11 0 633.63 0 684.43 87 742.39 97.5 889.43 68"/><polygon class="cls-16" points="860.43 169 889.43 68 742.39 97.5 557.43 300 860.43 169"/><polygon class="cls-3" points="761.53 521.77 860.43 169 557.43 300 547.43 485 761.53 521.77"/><polygon class="cls-9" points="531.43 588 547.43 485 761.53 521.77 531.43 588"/><polygon class="cls-17" points="1120.43 375 860.43 169 761.53 521.77 1120.43 375"/><polygon class="cls-18" points="747.43 902 761.53 521.77 531.43 588 569.43 741 747.43 902"/><polygon class="cls-19" points="499.43 872 569.43 741 747.43 902 499.43 872"/><polygon class="cls-20" points="688.43 989 747.43 902 499.43 872 688.43 989"/><polygon class="cls-21" points="417.43 942 499.43 872 688.43 989 417.43 942"/><polygon class="cls-16" points="82.62 909.34 499.43 872 171.43 726 82.62 909.34"/><polygon class="cls-21" points="82.62 592.23 171.43 726 82.62 909.34 82.62 592.23"/><polygon class="cls-22" points="531.43 592.23 171.43 726 569.43 741 531.43 592.23"/><polygon class="cls-22" points="98.43 506 171.43 726 82.62 592.23 98.43 506"/><polygon class="cls-11" points="82.62 497.25 98.43 506 83.4 588 82.62 497.25"/><polygon class="cls-23" points="531.43 592.23 171.43 726 98.43 506 531.43 592.23"/><polygon class="cls-11" points="547.43 485 98.43 506 531.43 592.23 547.43 485"/><polygon class="cls-24" points="557.43 300 547.43 485 146.43 361 406.43 195 557.43 300"/><polygon class="cls-12" points="98.43 506 146.43 361 547.43 485 98.43 506"/><polygon class="cls-10" points="82.62 381.85 146.43 361 98.43 506 82.62 497.25 82.62 381.85"/><polygon class="cls-3" points="98.43 2.96 119.97 163.57 146.43 361 82.62 381.85 82.62 0 98.43 0 98.43 2.96"/><polygon class="cls-16" points="181.2 0 120.98 171.16 98.43 0 181.2 0"/><polygon class="cls-25" points="187.43 220 120.98 171.16 181.2 0 296.93 0 296.93 8.57 187.43 220"/><polygon class="cls-12" points="146.43 358.87 187.43 220 120.98 171.16 146.43 358.87"/><polyline class="cls-20" points="499.43 872 569.43 741 180.17 726.33 171.43 726"/><path class="cls-3" d="M334,944l82-70L-.81,911.34" transform="translate(83.43 -2)"/><text class="cls-26" transform="translate(329.59 698.64) scale(1.15 1)">SoundBit.</text><path class="cls-27" d="M1213.28,355.08c66.31,132.63-168.55,365.68-524.56,520.53C374.78,1012.15-24.4,1025.84-76,915.82c-41.48-88.49,144-252.6,234.09-332.3,134.4-118.92,264.1-176.73,290.47-188.23C730.61,272.33,1152.35,233.2,1213.28,355.08Z" transform="translate(83.43 -2)"/><path class="cls-27" d="M-41.18,673.54C-51,552.54-5.27,384,105,349.89c4.69-1.45,86-25.51,142.12,10.12,4.7,3,13.45,10.39,31,25.13,44.85,37.68,53.74,49.75,73.81,64.72,0,0,37.23,27.77,84.49,39.83C515,509.74,556.13,446.45,679.05,409.4c26.16-7.88,139-39.91,269.5-9.82,31.07,7.16,101.84,24.24,172.15,78,35.32,27,109,83.31,130,181.54,2.91,13.61,29.64,150-69.53,237.2-51.94,45.67-115,55.78-136.9,59.34C974,967,915.65,950.85,898,945.77c-19.12-5.51-38.75-13.13-72.65-26.28-37.77-14.66-45.14-18.46-72.94-30.14-37.34-15.7-84.7-35.62-144.72-44.86-17.72-2.72-41.06-3.79-87.75-5.91-54-2.45-81-3.68-108.15-.7-41.34,4.53-71.3,14.61-106.12,26.31-69.6,23.4-72.64,35.57-109.1,42-49.2,8.7-100.37-3.43-134.71-22.24C-28,834.69-37.36,720.39-41.18,673.54Z" transform="translate(83.43 -2)"/><path class="cls-27" d="M-3.88,670.62c-4.46-39-11.83-164,73.08-245.19,17.3-16.54,47.41-45.53,95.82-52.79,12.16-1.82,48.3-5.7,84.82,10.88,23.91,10.85,31,22.77,68.49,55.83,24.39,21.5,45.61,37.82,59.91,48.37l46.61,25.57a111.94,111.94,0,0,0,37.59,6.52c11.89,0,25.88-2,53.45-13.35a389,389,0,0,0,69.16-37.09,384.07,384.07,0,0,1,56.87-32.82c127.12-59.57,254.55-35,286.52-27.9h0a400.87,400.87,0,0,1,159.44,74.91c22,17.22,146.45,114.74,135.58,254.37-1.51,19.42-7,89.75-65.68,144-48.8,45.1-108.21,54.68-136.91,59.34-56.34,9.15-105,.56-131.2-5.83-8.16-2-15-4-15-4-28.19-8.36-37.42-15.72-71.38-29.83-.54-.22-.19-.08-34.25-13.27l-42.82-16.6c-77.46-29.9-141.85-41.58-141.85-41.58a603.36,603.36,0,0,0-86.48-9.45,586.39,586.39,0,0,0-111.71,7.28C346,834.38,315.89,843.44,280,854.23c-72.29,21.76-80.78,31.28-109.91,30-44.28-2-76.42-26.37-90.06-36.79C10.22,794.09.58,709.74-3.88,670.62Z" transform="translate(83.43 -2)"/><path class="cls-27" d="M35.79,665.58c-3.13-40.89-8-119,39.6-192.59,28.49-44.07,57.75-58.64,66-62.48,7.57-3.52,48.47-21.7,94.87-10.06,22.5,5.64,33,15,69.78,43.17,106.9,81.94,127.81,87.15,144.4,88.19,25.42,1.61,46.4-6.2,78.17-18a330.89,330.89,0,0,0,77.31-41.22c64.69-44.69,198.35-79.05,318.19-47.17,76.08,20.23,124.34,61.2,144.54,78.81,25,21.77,131.7,114.81,116.17,237.68-8.25,65.29-47.23,108.93-53.67,116C1094,898.39,1050,915.18,1029.27,921.7a455.44,455.44,0,0,1-65.91,8.18c-14.1.7-29.54,1.41-49.93-.62a280.37,280.37,0,0,1-46.38-8.61c-11.09-4-19.89-7.52-25.69-10-17.85-7.48-21.64-10.3-38.68-16.87-7.17-2.75-9.94-3.58-17.13-6.63-11.41-4.84-19.48-9.14-21.56-10.23-17.42-9.17-55.31-25.46-74.57-33-8.35-3.25-49.32-18.93-106-28-37.78-6-66.86-6.63-86.4-7-22.64-.37-62.27-.84-111.71,7.29-43.4,7.13-79.09,18.39-107.47,27.34-56.85,17.93-66.65,26.42-93.71,25.5-42.91-1.44-74.18-24.43-81.21-29.6C45.86,797.68,40.46,726.91,35.79,665.58Z" transform="translate(83.43 -2)"/><path class="cls-27" d="M63.63,663.67C60,621.33,55.59,560,88.43,495.3c23.53-46.38,49.45-61.5,57.43-65.79,38.37-20.67,77.48-14.9,86.3-13.38,27.65,4.73,42.48,16.48,82.37,45,74.18,53.09,111.69,79.69,132.2,82.38,34.18,4.46,63.85-8.68,123.19-35,56.32-25,61.33-36.7,97.59-53.5,79.75-36.95,179.9-37.84,256.94-10.42,65.77,23.41,115.66,67.75,121.91,73.49C1064.53,534.8,1162.28,624.5,1150.6,744c-2,20.58-6.52,60.89-38.27,99.44-39.54,48-99,62.64-115.64,65.71-5.94,1.1-24.52,4-46.89,6.09-11.94,1.1-21.22,1.62-29,1.89-20,.71-30,1.06-41.66-1.16-5.88-1.12-13.86-4-29.83-9.69C834.26,900.9,826.05,898,815.09,893c-11.37-5.13-12.41-6.42-32.88-16.4-8.76-4.28-15.13-7.33-21.55-10.23-37.68-17-56.52-25.53-68.8-30.42-38.93-15.48-72-22.18-101.9-28.25-35.32-7.16-61.06-12.38-96.6-13.09-37.45-.75-64.54,3.94-103.15,10.61C344.77,813.09,316.38,818,280,831.82c-44,16.7-55.55,29.65-85.14,28.82-32.48-.91-56.33-17.55-64.09-23C75.13,798.88,69.05,727.33,63.63,663.67Z" transform="translate(83.43 -2)"/><path class="cls-27" d="M82.18,671.54C77.3,632.59,71,576.71,97.5,514.72c10.17-23.79,22.65-51,53-69.38,6-3.61,39.76-23.36,81.88-17,8.63,1.31,24.85,4.81,78.82,42.19,27.26,18.87,48.93,35.85,64.05,48.23,16.87,13.8,44.19,31.81,80.2,36.09,54.85,6.52,79.1-24.85,167.77-63.52C679.43,466.84,785.1,422.2,879,452.05c12.06,3.83,22.68,8.49,33.79,13.37,29.43,12.91,85.22,36.11,126.64,80.93,17.91,19.38,69.81,75.54,70.07,158.3.06,17.38.25,77.5-44.53,127-9.11,10.08-34,37.76-75.13,51.44-19,6.31-39,8.88-61.48,11.77A287.19,287.19,0,0,1,887,897.54a247.52,247.52,0,0,1-29.25-2,170.17,170.17,0,0,1-29.54-5.83,195.84,195.84,0,0,1-25.69-10c-10.45-4.79-14.75-7.68-26-13.82-6.4-3.5-15.78-8.05-34.54-17.14-27.45-13.3-41.36-19.61-51.67-23.77-13.89-5.6-25.32-9.55-39.42-14.41-11.81-4.07-19.48-6.7-29.83-9.68C604,796,590.66,793.34,583,791.82a532.45,532.45,0,0,0-79.77-10.31c-12-.58-58.68-2.38-119,9.22-33.2,6.39-65.93,12.84-105.83,30.17-30.41,13.21-45.63,24.36-73,24.15-28-.21-49-12.16-55.24-15.78C98.12,798.84,89.71,731.67,82.18,671.54Z" transform="translate(83.43 -2)"/><path class="cls-27" d="M102.62,663.14c-3.57-29.65-6.66-55.24.81-89.06,5.63-25.49,18.15-82.19,69.66-110.74,8-4.41,32.67-18.11,64-15.51,22.77,1.88,43.18,15.2,83.09,41.78,32.37,21.55,35.88,27.3,63.91,44.36,15.85,9.64,41,23.77,55,29.18,55.72,21.39,105.34-29.74,201.25-62.27,37.57-12.75,150.21-51.15,256-9.14a264.27,264.27,0,0,1,107.85,79.87c15.93,20,50.89,65.15,50.42,129-.11,14.56-1,56-29.45,96.39-16.79,23.86-36.85,38.36-45.56,44.54-12.19,8.67-27.76,19.53-51,26-10.07,2.81-18.78,3.92-36.21,6.14-23.36,3-36.32,2.76-40.55,2.65a192.09,192.09,0,0,1-24.61-2.18,126.4,126.4,0,0,1-24.89-5.93c-.63-.23-.54-.2-8.39-3.23-10-3.86-15.75-6.06-16.78-6.46-11.32-4.38-23.09-11.06-33.85-16.69-21.33-11.16-39.15-18.45-50.63-23.15-6.59-2.69-2.76-1-33.57-12.93-21.65-8.38-25-9.79-33.56-12.92C608,786.33,593.2,781.7,588,780.15c-27.92-8.33-53.55-9.09-82.22-9.76-33.8-.78-70.93-1.65-117.59,7.67-57.47,11.49-99.68,29.18-99.68,29.18-8.08,5.53-33.26,21.29-67.8,19.53-31.63-1.6-53-17-60.87-22.86C115.61,771.07,109.06,716.64,102.62,663.14Z" transform="translate(83.43 -2)"/><path class="cls-27" d="M126.5,660.3c-.9-19-1.81-42.2,5.72-71.75,6.07-23.82,15-59,47.65-84.55,8.66-6.78,26.6-20.83,52.27-22.8,1.75-.13,3.05-.14,3.9-.16,33-.64,66.64,17.51,72.17,20.57,39.6,21.84,41,31.3,76.64,51.69,12.51,7.17,34.69,19.87,54.89,25.31,57.51,15.48,90-30.29,192.64-64.34,27.37-9.08,99.7-32.35,175-21.87,15.36,2.13,53.35,7.84,93.63,30.21,46.53,25.85,69.63,58.93,80.35,74.67,10.91,16,32.87,49.15,36.24,95.7,1.27,17.47,2.73,42.24-11.38,69.76-11,21.52-27.07,35.88-34.21,42.18A151.83,151.83,0,0,1,936.48,829c-15.76,7.66-29.32,10.88-40.51,13.54-12.12,2.89-20.75,4-36.92,6-25,3.18-36.52,2.9-41.33,2.7A140,140,0,0,1,796.79,849a164.76,164.76,0,0,1-21.21-5.88c-8-2.6-14.07-5-17.07-6.15-13.19-5.23-20.13-9-34.42-15.92-11.61-5.61-7-3.13-34.41-15.91-25.15-11.75-26.09-12.48-34.42-15.92-5.59-2.31-12.85-5.14-34.14-12.3-21.88-7.35-36.16-12.15-46.81-15.11-32.12-8.9-59.9-9-83.74-9.07-19.66-.06-62.92.16-115.17,14.78-41.67,11.66-47.68,20.91-106.56,37-33.18,9.06-51.54,11.66-70.25,4.58-19.52-7.38-29.89-21.69-40.09-36.16C130.47,733.18,128,691.33,126.5,660.3Z" transform="translate(83.43 -2)"/><path class="cls-27" d="M142,677.1s-5-47,17.31-102c7.37-18.19,15.32-28.65,23.32-36.34a101.25,101.25,0,0,1,16.93-13,120.75,120.75,0,0,1,48.65-16.6c19.15-.63,33.4,3.21,48.14,8.23,28.6,9.74,41.05,20.8,67.76,36.5a470.71,470.71,0,0,0,67.62,32.63,158.52,158.52,0,0,0,41.6,2.52,168.77,168.77,0,0,0,28.87-4.81c38.05-9,83.54-40.08,85.59-41.5a345.87,345.87,0,0,1,115-30.84s60.22-5.38,120.08,10.15a192.12,192.12,0,0,1,21.62,6.8c19.36,7.42,33.91,16.83,47.33,25.64,20.3,13.34,47.18,31,67.07,62.79,7,11.24,23.63,38.58,22.31,75.78-.87,24.48-9.14,43.16-12.79,51.2-4.15,9.13-9.82,21.34-22.32,35a152.66,152.66,0,0,1-31.34,25.55c-8.69,5.43-18,11.23-32.1,15.52-7.94,2.41-16.24,3.44-32.85,5.5-13.36,1.66-23.52,2.88-37.23,2.43a157.47,157.47,0,0,1-20.94-2,154,154,0,0,1-21.19-5.34c-11-3.45-15.82-5.8-30-11.47-16.92-6.79-15-5.46-30-11.48-20.21-8.16-19.87-9.07-34.35-14.55-13.06-4.94-23.66-8.1-34.1-11.21-13.88-4.13-24.84-6.89-29.72-8.13-11.08-2.84-29.26-7.48-49.94-11.54-24.88-4.89-43.9-8.62-66.75-9.44-23.78-.85-40.48,1.86-66.18,6A731.85,731.85,0,0,0,318,777.12c-13.19,4.46-23.54,7.68-40.49,12.28-24.53,6.67-42.76,9.64-62,4.05-18.22-5.28-29.19-16.69-37.56-25.63C148.24,736.16,144.23,698.14,142,677.1Z" transform="translate(83.43 -2)"/></svg>