<svg id="Layer_1" data-name="Layer 1" xmlns="http://www.w3.org/2000/svg" viewBox="0 0 794.18 766.54"><defs><style>.cls-1,.cls-2{fill:#fff;}.cls-1{stroke:#000;stroke-miterlimit:10;}.cls-3{fill:#082e66;}</style></defs><path class="cls-1" d="M370.5,314.5" transform="translate(-41 -30.45)"/><path class="cls-1" d="M308.5,325.5" transform="translate(-41 -30.45)"/><path class="cls-2" d="M-12-36.55" transform="translate(-41 -30.45)"/><path class="cls-3" d="M303.79,306.47a5.38,5.38,0,0,1,.38-.66,5.29,5.29,0,0,1,.61-1.12l.13-.25c.09-.21.18-.42.29-.62a5.18,5.18,0,0,1,.55-1.36,5.24,5.24,0,0,1,.44-1.28,51.2,51.2,0,0,1,1.74-6,5.82,5.82,0,0,1,.26-1.37c0-.22,0-.43.07-.64a6.17,6.17,0,0,1,.24-1.81V30.45l-96.67.23V229.32H41V325.5H276.14a4.88,4.88,0,0,1,1.05-.23,5.87,5.87,0,0,1,1.22-.19,4.33,4.33,0,0,1,.73-.18,5.22,5.22,0,0,1,2-.5,23.7,23.7,0,0,0,3.21-1.11,4.58,4.58,0,0,1,1.49-.57,4.3,4.3,0,0,1,1.14-.55,4.39,4.39,0,0,1,1.53-.85,4.54,4.54,0,0,1,1.16-.66,4.59,4.59,0,0,1,1.39-.78,4.45,4.45,0,0,1,.55-.38,20.91,20.91,0,0,0,3.38-2.57,4.06,4.06,0,0,1,.46-.36,4.54,4.54,0,0,1,1.33-1.25,4.46,4.46,0,0,1,1.18-1.15,4.67,4.67,0,0,1,1.09-1.26,4.82,4.82,0,0,1,1.16-1.31c.06-.07.13-.12.19-.19a4.62,4.62,0,0,1,.45-.64c.12-.19.25-.38.39-.56a4.86,4.86,0,0,1,1.29-1.63,3.21,3.21,0,0,1,.19-.31,5.19,5.19,0,0,1,.91-1.56C303.68,306.63,303.74,306.55,303.79,306.47Z" transform="translate(-41 -30.45)"/><circle class="cls-3" cx="229.4" cy="257.3" r="38"/><path class="cls-3" d="M572.38,520.69a5.44,5.44,0,0,1-.37.67,5.21,5.21,0,0,1-.61,1.11l-.14.26a4.91,4.91,0,0,1-.28.62,5.35,5.35,0,0,1-.56,1.35A5.29,5.29,0,0,1,570,526a49.76,49.76,0,0,1-1.75,6,5.71,5.71,0,0,1-.25,1.37,4.81,4.81,0,0,1-.08.65,5.74,5.74,0,0,1-.23,1.8v261l96.67-.24V597.85H835.18V501.66H600a5,5,0,0,1-1.06.23,5.11,5.11,0,0,1-1.22.19,5.19,5.19,0,0,1-.73.19,5.35,5.35,0,0,1-2,.49,4.91,4.91,0,0,1-2.07.66,4.54,4.54,0,0,1-1.13.46,17,17,0,0,0-2.63,1.12,4.68,4.68,0,0,1-1.54.84,4.51,4.51,0,0,1-1.15.67,4.74,4.74,0,0,1-1.4.78,5.14,5.14,0,0,1-.54.37,19.77,19.77,0,0,0-3.38,2.57,4.14,4.14,0,0,1-.46.37,4.55,4.55,0,0,1-1.34,1.24,4.41,4.41,0,0,1-1.17,1.15,4.74,4.74,0,0,1-1.1,1.26,4.68,4.68,0,0,1-1.16,1.31c-.05.07-.13.13-.18.2a5.55,5.55,0,0,1-.45.63,4.39,4.39,0,0,1-.4.56,4.74,4.74,0,0,1-1.28,1.64c-.06.11-.14.2-.2.31a4.76,4.76,0,0,1-.91,1.55A1.94,1.94,0,0,1,572.38,520.69Z" transform="translate(-41 -30.45)"/><path class="cls-3" d="M300.41,520.5a4.75,4.75,0,0,0,.36.67,5.73,5.73,0,0,0,.6,1.12c0,.08.08.17.13.25a3.89,3.89,0,0,0,.28.62,4.89,4.89,0,0,0,.54,1.36,5.73,5.73,0,0,0,.42,1.29,53,53,0,0,0,1.7,6,6.45,6.45,0,0,0,.25,1.38c0,.21.05.43.08.64a6.12,6.12,0,0,0,.23,1.81V797l-94.32-.23v-199H44V501.45H273.42a5.53,5.53,0,0,0,1,.23,6.28,6.28,0,0,0,1.2.19,6.68,6.68,0,0,0,.71.18,4.76,4.76,0,0,0,2,.49,4.56,4.56,0,0,0,2,.67,4.7,4.7,0,0,0,1.1.45,4.59,4.59,0,0,0,1.46.57,4.45,4.45,0,0,0,1.11.56,4.39,4.39,0,0,0,1.5.84,4.3,4.3,0,0,0,1.12.66,4.51,4.51,0,0,0,1.37.79,4.15,4.15,0,0,0,.53.37,4.45,4.45,0,0,0,1.94,1.39,4.54,4.54,0,0,0,1.35,1.19c.14.13.3.25.45.37a4.44,4.44,0,0,0,1.31,1.24,4.2,4.2,0,0,0,1.15,1.15,4.42,4.42,0,0,0,1.06,1.26,4.65,4.65,0,0,0,1.14,1.32c.05.07.12.12.18.19a4,4,0,0,0,.43.64c.12.19.25.38.39.56a4.91,4.91,0,0,0,1.25,1.64c.06.11.13.2.19.31a5.26,5.26,0,0,0,.89,1.56C300.3,520.35,300.36,520.42,300.41,520.5Z" transform="translate(-41 -30.45)"/><path class="cls-3" d="M572.38,306.63A4.44,4.44,0,0,0,572,306a5.21,5.21,0,0,0-.61-1.11c0-.09-.08-.17-.13-.26s-.17-.42-.28-.62a5.57,5.57,0,0,0-.56-1.36,5.84,5.84,0,0,0-.43-1.28,49.37,49.37,0,0,0-1.75-6A5.71,5.71,0,0,0,568,294c0-.22,0-.43-.08-.64a5.81,5.81,0,0,0-.23-1.81V30.45l96.6.23V229.43H835v96.24H600a5,5,0,0,0-1.06-.23,5.11,5.11,0,0,0-1.22-.19,5.19,5.19,0,0,0-.73-.19,5.35,5.35,0,0,0-2-.49,4.81,4.81,0,0,0-2.08-.66,4.54,4.54,0,0,0-1.13-.46,4.82,4.82,0,0,0-1.49-.57,5,5,0,0,0-1.14-.55,4.55,4.55,0,0,0-1.53-.85,4.79,4.79,0,0,0-1.15-.66,4.65,4.65,0,0,0-1.4-.78,4,4,0,0,0-.54-.37,20.43,20.43,0,0,1-3.38-2.58,4.06,4.06,0,0,0-.46-.36,4.54,4.54,0,0,0-1.33-1.25,4.78,4.78,0,0,0-1.18-1.15,147.74,147.74,0,0,0-2.25-2.57l-.19-.19a4.09,4.09,0,0,0-.45-.64,4.31,4.31,0,0,0-.39-.56,4.89,4.89,0,0,0-1.29-1.64c0-.11-.13-.2-.19-.31a5.15,5.15,0,0,0-.91-1.55A1.94,1.94,0,0,0,572.38,306.63Z" transform="translate(-41 -30.45)"/></svg>