<svg id="Layer_1" data-name="Layer 1" xmlns="http://www.w3.org/2000/svg" viewBox="0 0 36.95 72.09"><defs><style>.cls-1{fill:#082e66;}</style></defs><path class="cls-1" d="M10.48,38.15a9.47,9.47,0,0,0,9.71,9.21,9.46,9.46,0,0,0,9.71-9.21v-25a9.47,9.47,0,0,0-9.71-9.21,9.48,9.48,0,0,0-9.71,9.21" transform="translate(-1.74 -3.93)"/><path class="cls-1" d="M33.68,40C33,56.35,7.48,56.39,6.74,40c-.14-3.21-5.14-3.22-5,0A18.35,18.35,0,0,0,20.21,57.59,18.35,18.35,0,0,0,38.68,40c.15-3.22-4.85-3.21-5,0Z" transform="translate(-1.74 -3.93)"/><path class="cls-1" d="M17.71,55.61V73.52c0,3.22,5,3.23,5,0V55.61c0-3.21-5-3.22-5,0Z" transform="translate(-1.74 -3.93)"/><path class="cls-1" d="M29.93,71H10.5c-3.22,0-3.22,5,0,5H29.93c3.21,0,3.22-5,0-5Z" transform="translate(-1.74 -3.93)"/></svg>