<svg id="Layer_1" data-name="Layer 1" xmlns="http://www.w3.org/2000/svg" viewBox="0 0 121.87 121.87"><defs><style>.cls-1{fill:#d882c7;}.cls-2{fill:#fff;}</style></defs><circle class="cls-1" cx="60.93" cy="60.93" r="60.93"/><polygon class="cls-2" points="95.07 61.15 42.78 95.07 42.78 27.23 95.07 61.15"/><path class="cls-2" d="M96,61.37,78.35,72.85,50.18,91.12,43.74,95.3,46,96.59V28.75L43.74,30,61.42,41.51,89.59,59.79,96,64c1.62,1.06,3.13-1.54,1.51-2.59L79.86,49.9,51.69,31.63l-6.44-4.18A1.51,1.51,0,0,0,43,28.75V96.59a1.51,1.51,0,0,0,2.25,1.3L62.94,86.42,91.11,68.14,97.54,64C99.16,62.92,97.66,60.32,96,61.37Z" transform="translate(-1.71 -1.52)"/></svg>