<svg id="Layer_1" data-name="Layer 1" xmlns="http://www.w3.org/2000/svg" viewBox="0 0 64.96 39.42"><defs><style>.cls-1{fill:#7da7d9;}.cls-2{fill:#f4989d;}</style></defs><rect class="cls-1" width="50.96" height="39.42" rx="12"/><polyline class="cls-1" points="50.96 11.54 50.96 25.96 63.46 33.65 63.46 2.88 50.96 11.54 63.46 2.88 63.46 33.65 50.96 25.96 63.46 33.65"/><path class="cls-1" d="M52.69,15.59" transform="translate(-1.73 -4.27)"/><polygon class="cls-1" points="50.96 11.32 63.46 2.88 63.46 33.65 50.96 25.96 50.96 11.32"/><path class="cls-1" d="M53.45,16.89,66,8.45l-2.26-1.3V37.92L66,36.63l-12.5-7.7.74,1.3V15.59a1.5,1.5,0,0,0-3,0V28.72c0,.49,0,1,0,1.51.11,1,.82,1.34,1.58,1.8L59.13,36l5.31,3.27a1.51,1.51,0,0,0,2.25-1.3V7.15a1.5,1.5,0,0,0-2.25-1.29L51.93,14.3C50.34,15.37,51.84,18,53.45,16.89Z" transform="translate(-1.73 -4.27)"/><path class="cls-2" d="M50.76,21" transform="translate(-1.73 -4.27)"/></svg>