<svg id="Layer_1" data-name="Layer 1" xmlns="http://www.w3.org/2000/svg" viewBox="0 0 790.32 764.78"><defs><style>.cls-1{fill:#082e66;}</style></defs><path class="cls-1" d="M67,49a6.29,6.29,0,0,1-.37.67A5.69,5.69,0,0,1,66,50.73l-.14.25a4.46,4.46,0,0,1-.28.63A5.5,5.5,0,0,1,65,53a5.29,5.29,0,0,1-.43,1.29,49.76,49.76,0,0,1-1.75,6,5.71,5.71,0,0,1-.25,1.37c0,.22,0,.43-.08.64A5.81,5.81,0,0,1,62.26,64V325l96.67-.24V126.1H329.76V29.92H94.63a5,5,0,0,1-1.06.23,5.19,5.19,0,0,1-1.22.19,4.1,4.1,0,0,1-.73.18,5.17,5.17,0,0,1-2,.5,4.91,4.91,0,0,1-2.07.66,4.54,4.54,0,0,1-1.13.46,4.75,4.75,0,0,1-1.49.56,4.84,4.84,0,0,1-1.14.56,4.68,4.68,0,0,1-1.54.84,4.48,4.48,0,0,1-1.15.66,4.67,4.67,0,0,1-1.4.79,5.14,5.14,0,0,1-.54.37,4.42,4.42,0,0,1-2,1.38,4.42,4.42,0,0,1-1.38,1.19,4.14,4.14,0,0,1-.46.37A4.55,4.55,0,0,1,74,40.1a4.46,4.46,0,0,1-1.18,1.15,4.67,4.67,0,0,1-1.09,1.26,4.82,4.82,0,0,1-1.16,1.31c-.05.07-.13.13-.18.19a4.89,4.89,0,0,1-.45.64,5.66,5.66,0,0,1-.4.56,4.74,4.74,0,0,1-1.28,1.64c-.06.11-.14.2-.2.31a5,5,0,0,1-.91,1.55A1.94,1.94,0,0,1,67,49Z" transform="translate(-62.26 -29.92)"/><path class="cls-1" d="M67,775.64a4.8,4.8,0,0,0-.37-.67,5.5,5.5,0,0,0-.61-1.12l-.14-.25a4.46,4.46,0,0,0-.28-.63,5.57,5.57,0,0,0-.56-1.36,5.22,5.22,0,0,0-.43-1.28,49.52,49.52,0,0,0-1.75-6,5.89,5.89,0,0,0-.25-1.38c0-.21,0-.43-.08-.64a5.81,5.81,0,0,0-.24-1.81V499l96.68.23V698.3H329.76v96.41H94.63a5,5,0,0,0-1.06-.23,5.11,5.11,0,0,0-1.22-.19,5.19,5.19,0,0,0-.73-.19,5,5,0,0,0-2-.49,4.78,4.78,0,0,0-2.07-.67,4.94,4.94,0,0,0-1.13-.45,4.76,4.76,0,0,0-1.49-.57,4.65,4.65,0,0,0-1.14-.56,4.68,4.68,0,0,0-1.54-.84,4.51,4.51,0,0,0-1.15-.67,4.65,4.65,0,0,0-1.4-.78,5.22,5.22,0,0,0-.54-.38,4.58,4.58,0,0,0-2-1.38,4.42,4.42,0,0,0-1.38-1.19,4.14,4.14,0,0,0-.46-.37A4.55,4.55,0,0,0,74,784.51a4.61,4.61,0,0,0-1.17-1.16,4.89,4.89,0,0,0-1.1-1.26,4.68,4.68,0,0,0-1.16-1.31c-.05-.08-.13-.13-.18-.2a5.55,5.55,0,0,0-.45-.63,4.49,4.49,0,0,0-.4-.57,4.74,4.74,0,0,0-1.28-1.64c-.06-.11-.14-.2-.2-.31a4.91,4.91,0,0,0-.91-1.56C67.08,775.79,67,775.72,67,775.64Z" transform="translate(-62.26 -29.92)"/><path class="cls-1" d="M848,775.62a4,4,0,0,1,.37-.67,5,5,0,0,1,.59-1.12l.14-.26c.08-.21.17-.42.27-.62a5.54,5.54,0,0,1,.55-1.36,5.73,5.73,0,0,1,.42-1.29,51.19,51.19,0,0,1,1.71-6,6.45,6.45,0,0,1,.25-1.38,4.66,4.66,0,0,1,.08-.64,5.81,5.81,0,0,1,.23-1.81V498.7l-94.68.24V698.22H590.59V794.7h230.3a5.46,5.46,0,0,1,1-.22,4.94,4.94,0,0,1,1.19-.19,5.42,5.42,0,0,1,.72-.19,5,5,0,0,1,2-.5,4.77,4.77,0,0,1,2-.66,4.31,4.31,0,0,1,1.1-.45,4.36,4.36,0,0,1,1.46-.57,4.7,4.7,0,0,1,1.12-.56,116,116,0,0,0,2.63-1.51,4.63,4.63,0,0,1,1.37-.79,5,5,0,0,1,.53-.37,19.9,19.9,0,0,0,3.31-2.58,5.19,5.19,0,0,1,.45-.37,4.88,4.88,0,0,1,1.31-1.25,4.65,4.65,0,0,1,1.15-1.15,4.49,4.49,0,0,1,1.08-1.26,4.61,4.61,0,0,1,1.13-1.32c.06-.07.13-.12.18-.19a4.83,4.83,0,0,1,.44-.64,5.58,5.58,0,0,1,.39-.56,4.81,4.81,0,0,1,1.26-1.64,3.21,3.21,0,0,1,.19-.31,5,5,0,0,1,.89-1.56A1.94,1.94,0,0,1,848,775.62Z" transform="translate(-62.26 -29.92)"/><path class="cls-1" d="M847.89,49a6.38,6.38,0,0,0,.38.67,5.21,5.21,0,0,0,.61,1.11c0,.08.08.17.13.25a5.83,5.83,0,0,0,.28.62,5.57,5.57,0,0,0,.56,1.36,5.08,5.08,0,0,0,.43,1.28,51.2,51.2,0,0,0,1.74,6,5.72,5.72,0,0,0,.26,1.37c0,.22,0,.43.07.64a6.13,6.13,0,0,0,.24,1.81V325l-96.43-.23V126.1H585.76V29.92H820.31a4.88,4.88,0,0,0,1.05.23,5.27,5.27,0,0,0,1.22.19,4.1,4.1,0,0,0,.73.18,5.17,5.17,0,0,0,2,.5,4.91,4.91,0,0,0,2.07.66,4.52,4.52,0,0,0,1.13.45,4.61,4.61,0,0,0,1.48.57,4.84,4.84,0,0,0,1.14.56,4.53,4.53,0,0,0,1.53.84,4.48,4.48,0,0,0,1.15.66,4.44,4.44,0,0,0,1.4.78,4,4,0,0,0,.54.38,4.61,4.61,0,0,0,2,1.38,4.54,4.54,0,0,0,1.38,1.19,5.72,5.72,0,0,0,.46.37,4.64,4.64,0,0,0,1.33,1.24,4.46,4.46,0,0,0,1.18,1.15,4.67,4.67,0,0,0,1.09,1.26,4.78,4.78,0,0,0,1.15,1.31c.06.07.13.13.19.19a4.09,4.09,0,0,0,.45.64,5.12,5.12,0,0,0,.39.56,4.73,4.73,0,0,0,1.28,1.63c.06.11.14.21.2.31a4.86,4.86,0,0,0,.9,1.56C847.78,48.79,847.84,48.87,847.89,49Z" transform="translate(-62.26 -29.92)"/></svg>