<svg id="Layer_1" data-name="Layer 1" xmlns="http://www.w3.org/2000/svg" viewBox="0 0 58.76 58.76"><defs><style>.cls-1{fill:#8493ca;}</style></defs><path class="cls-1" d="M172.19,15,187,29.79l23.59,23.59L216,58.83c2.78,2.78,7.87,3,10.61,0a7.63,7.63,0,0,0,0-10.6L211.84,33.44,188.24,9.85,182.8,4.4c-2.78-2.78-7.87-3-10.61,0a7.63,7.63,0,0,0,0,10.61Z" transform="translate(-170.03 -2.24)"/><path class="cls-1" d="M216,4.4,201.23,19.19,177.64,42.78l-5.45,5.45c-2.78,2.77-3,7.86,0,10.6a7.63,7.63,0,0,0,10.61,0l14.78-14.78,23.59-23.59L226.62,15c2.78-2.78,3-7.87,0-10.61A7.64,7.64,0,0,0,216,4.4Z" transform="translate(-170.03 -2.24)"/></svg>